<?xml version="1.0" encoding="utf-8"?>
<!-- Generator: Adobe Illustrator 18.1.1, SVG Export Plug-In . SVG Version: 6.00 Build 0)  -->
<!DOCTYPE svg PUBLIC "-//W3C//DTD SVG 1.1//EN" "http://www.w3.org/Graphics/SVG/1.1/DTD/svg11.dtd">
<svg version="1.1" id="Layer_1" xmlns="http://www.w3.org/2000/svg" xmlns:xlink="http://www.w3.org/1999/xlink" x="0px" y="0px"
	 viewBox="352 58.7 296.4 182.9" enable-background="new 352 58.7 296.4 182.9" xml:space="preserve">
<path fill="#FF7007" d="M401.3,179.3c0-27.6,0-56.8,0-86.8c5.4-0.9,10.3-1.6,15.2-2.4c5-3.1,10.1-6.1,15.1-9.2
	c0.4,0.5,0.8,0.9,1.2,1.4c-7.8,6.3-15.6,12.6-21.3,17.2c5.2,23,20.6,33.3,39.7,28.9c9.1-2.1,17.6-7.1,26-11.6
	c6.5-3.6,12.4-8.5,20.2-13.9c27.9,32.2,55.2,63.7,82.9,95.7c-2.6,4.8-4.7,8.7-7.1,13.2c-6.6-0.4-12.5-0.8-19-1.2
	c-1.5,3.9-3.2,8.3-5.4,14.2c-6.7-1.1-12.9-2.1-19.9-3.2c-2.9,3-6.5,6.9-10.8,11.4c-6.2-1.8-11.9-3.5-17.2-5c-4.7,4-9.3,8-15.7,13.6
	C457.1,220.7,430.2,200.7,401.3,179.3z"/>
<path fill="#FF7007" d="M422.3,105.7c3.4-3.2,6.8-6.8,10.7-9.8c10-7.7,20.7-14.6,30.2-22.9c20.9-18.1,44.9-17.5,66.7-6.6
	c21.9,10.9,44.3,19.1,68.7,25c0,32.4,0,64.6,0,97.4c-3.4,1.3-7.1,2.7-11.7,4.4c-29.2-33.4-58.4-66.8-88.6-101.4
	c-7.2,4.5-13.3,8.5-19.8,12.2c-8.7,5-17.2,10.9-26.5,14.3C439.8,122.9,430.4,118.3,422.3,105.7z"/>
<path fill="#FF7007" d="M352,224.8c0-52.1,0-102.1,0-153.9c12.6,0,24.7,0,38.2,0c0,50.8,0,101.7,0,153.9
	C377.9,224.8,365.7,224.8,352,224.8z"/>
<path fill="#FF7007" d="M648.4,224.8h-38.2V70.9h38.2V224.8z"/>
</svg>
