<?xml version="1.0" encoding="utf-8"?>
<!-- Generator: Adobe Illustrator 18.1.1, SVG Export Plug-In . SVG Version: 6.00 Build 0)  -->
<!DOCTYPE svg PUBLIC "-//W3C//DTD SVG 1.1//EN" "http://www.w3.org/Graphics/SVG/1.1/DTD/svg11.dtd">
<svg version="1.1" id="Layer_1" xmlns="http://www.w3.org/2000/svg" xmlns:xlink="http://www.w3.org/1999/xlink" x="0px" y="0px"
	 viewBox="351.6 2 296 296" enable-background="new 351.6 2 296 296" xml:space="preserve">
<path fill="#FF7007" d="M499.5,298c-82.4,0-148.1-66.2-147.9-148.7C351.8,67,418.1,1.6,500.9,2C582,2.3,647.5,68.2,647.6,149.5
	C647.8,232,581.9,298,499.5,298z M498.9,267.6c66,0.3,117.7-50.6,118.3-116.4c0.6-66.1-50-118-115.8-118.8
	C434.5,31.5,382,83.1,382,149.8C381.9,215.7,433.1,267.2,498.9,267.6z"/>
<path fill="#FF7007" d="M486.2,77c7.6,0,13.5,0,20.9,0c0,25.5,0,49.9,0,75.1c22.2,13.8,43.6,27.1,65.6,40.7
	c-3.8,6.8-6.7,12-10.8,19.4c-25.5-15.5-50.2-30.6-75.7-46.1C486.2,136.9,486.2,107.9,486.2,77z"/>
</svg>
