<?xml version="1.0" encoding="utf-8"?>
<!-- Generator: Adobe Illustrator 18.1.1, SVG Export Plug-In . SVG Version: 6.00 Build 0)  -->
<!DOCTYPE svg PUBLIC "-//W3C//DTD SVG 1.1//EN" "http://www.w3.org/Graphics/SVG/1.1/DTD/svg11.dtd">
<svg version="1.1" id="Layer_1" xmlns="http://www.w3.org/2000/svg" xmlns:xlink="http://www.w3.org/1999/xlink" x="0px" y="0px"
	 viewBox="351.5 42.6 297.1 212.7" enable-background="new 351.5 42.6 297.1 212.7" xml:space="preserve">
<path fill="#FF7007" d="M610.1,150.5c-20.6-20.3-39.3-38.9-58.2-57.3c-8.4-8.2-14.4-17.3-4.9-27.5c9.9-10.6,19.1-4.3,27.4,4
	c21.6,21.7,43.5,43.2,64.9,65.1c12.5,12.8,12.3,19.3-0.5,32.4c-21.4,21.9-43.3,43.4-64.9,65.1c-8.4,8.5-17.7,13.7-27.4,3
	c-8.7-9.6-3.5-18.1,4.3-25.9C570,190.6,589,171.5,610.1,150.5z"/>
<path fill="#FF7007" d="M389.9,150.5c20.6-20.3,39.3-38.9,58.2-57.3c8.4-8.2,14.4-17.3,4.9-27.5c-9.9-10.6-19.1-4.3-27.4,4
	c-21.6,21.7-43.5,43.2-64.9,65.1c-12.5,12.8-12.3,19.3,0.5,32.4c21.4,21.9,43.3,43.4,64.9,65.1c8.4,8.5,17.7,13.7,27.4,3
	c8.7-9.6,3.5-18.1-4.3-25.9C429.9,190.6,410.9,171.5,389.9,150.5z"/>
<path fill="#FF7007" d="M475.5,254.8L475.5,254.8c-10.8-2.5-17.5-13.3-14.9-24.1L501,58.1c2.5-10.8,13.3-17.5,24.1-14.9l0,0
	c10.8,2.5,17.5,13.3,14.9,24.1l-40.4,172.6C497,250.6,486.2,257.3,475.5,254.8z"/>
</svg>
