<?xml version="1.0" encoding="utf-8"?>
<!-- Generator: Adobe Illustrator 18.1.1, SVG Export Plug-In . SVG Version: 6.00 Build 0)  -->
<!DOCTYPE svg PUBLIC "-//W3C//DTD SVG 1.1//EN" "http://www.w3.org/Graphics/SVG/1.1/DTD/svg11.dtd">
<svg version="1.1" id="Layer_1" xmlns="http://www.w3.org/2000/svg" xmlns:xlink="http://www.w3.org/1999/xlink" x="0px" y="0px"
	 viewBox="351.7 62.4 296.4 175.1" enable-background="new 351.7 62.4 296.4 175.1" xml:space="preserve">
<path fill="#FF7007" d="M492.5,149.9c2.3-2.3,4.6-4.5,7.1-6.5c2.7-2.2,5.4-4.4,8-6.6c-6-5.9-11.9-11.7-17.8-17.5
	c-0.7-24.6-10.8-34.1-30.3-27.6c5.4,6.1,10.6,12,18.8,21.3c-3.3,3.1-6,5.5-8.9,8.2c-8.9-7.8-14.9-13-21.1-18.4
	c-6.3,20,2.8,29.7,27.8,30.8C481.6,139,487.1,144.5,492.5,149.9z"/>
<path fill="#FF7007" d="M521,149.9c-2.3,2.3-4.6,4.5-7.1,6.5c-2.7,2.2-5.4,4.4-8,6.6c6,5.9,11.9,11.7,17.8,17.5
	c0.7,24.6,10.8,34.1,30.3,27.6c-5.4-6.1-10.6-12-18.8-21.3c3.3-3.1,6-5.5,8.9-8.2c8.9,7.8,14.9,13,21.1,18.4
	c6.3-20-2.8-29.7-27.8-30.8C531.9,160.9,526.5,155.4,521,149.9z"/>
<path fill="#FF7007" d="M438.7,62.4c1.7,1.9,4,4.4,6.8,7.4c-26.5,26.2-52.6,52-79.3,78.4c27.4,27.3,53.4,53.2,80.9,80.6
	c-3.3,3.4-5.9,6.1-8.4,8.7c-30.4-30.7-59.1-59.7-87-87.8C379.6,121.5,408.4,92.7,438.7,62.4z"/>
<path fill="#FF7007" d="M561.1,62.4c-1.7,1.9-4,4.4-6.8,7.4c26.5,26.2,52.6,52,79.3,78.4c-27.4,27.3-53.4,53.2-80.9,80.6
	c3.3,3.4,5.9,6.1,8.4,8.7c30.4-30.7,59.1-59.7,87-87.8C620.2,121.5,591.4,92.7,561.1,62.4z"/>
<path fill="#FF7007" d="M484.9,152c5.9,6,10.1,10.3,15.8,16.1c-12.8,12.6-25,25-37.6,36.9c-4.7,4.4-10.7,3.8-14.7-1.2
	c-4.4-5.4-3.4-11.3,1.5-16.3C461.2,176,472.5,164.6,484.9,152z"/>
<path fill="#FF7007" d="M486.5,143.9l23.4,23.1l20.1-8.1l-32.7-32.4L486.5,143.9z"/>
<path fill="#FF7007" d="M555,89.3l8.4,8.4l-12,26.6h-15.3l-6.7-6.7l-0.5-15.7L555,89.3z"/>
<path fill="#FF7007" d="M520.5,140.6l-8.3-8.3l18.1-18.1l8.3,8.3L520.5,140.6z"/>
</svg>
