<?xml version="1.0" encoding="utf-8"?>
<!-- Generator: Adobe Illustrator 18.1.1, SVG Export Plug-In . SVG Version: 6.00 Build 0)  -->
<!DOCTYPE svg PUBLIC "-//W3C//DTD SVG 1.1//EN" "http://www.w3.org/Graphics/SVG/1.1/DTD/svg11.dtd">
<svg version="1.1" id="Layer_1" xmlns="http://www.w3.org/2000/svg" xmlns:xlink="http://www.w3.org/1999/xlink" x="0px" y="0px"
	 viewBox="351.6 14.9 296.6 270.2" enable-background="new 351.6 14.9 296.6 270.2" xml:space="preserve">
<path fill="#FF7007" d="M648.2,180.3H351.6v-64.9h296.6V180.3L648.2,180.3z M422.7,172.5h7l9.2-32.4c0.1-0.4,0.2-0.9,0.4-1.3
	c0.1-0.5,0.2-1,0.4-1.5c0.1,0.5,0.2,1.1,0.4,1.5c0.1,0.5,0.2,0.9,0.4,1.3l9.1,32.4h7l12.9-47.4h-6.1c-0.7,0-1.2,0.2-1.7,0.6
	s-0.8,0.9-0.9,1.4l-7.1,28.4c-0.2,0.7-0.3,1.4-0.4,2.2s-0.3,1.6-0.4,2.5c-0.3-1.7-0.7-3.3-1.1-4.7l-8.1-28.4
	c-0.2-0.6-0.5-1.1-0.9-1.5s-1-0.5-1.7-0.5h-2.3c-0.7,0-1.2,0.2-1.7,0.6s-0.8,0.9-0.9,1.4l-8.2,28.4c-0.2,0.7-0.4,1.5-0.6,2.3
	s-0.4,1.7-0.5,2.6c-0.1-0.9-0.3-1.8-0.4-2.6s-0.3-1.6-0.5-2.3l-7.1-28.4c-0.2-0.6-0.5-1.1-0.9-1.5c-0.5-0.4-1-0.5-1.7-0.5h-6.5
	L422.7,172.5z M483,172.5h7l9.2-32.4c0.1-0.4,0.2-0.9,0.4-1.3c0.1-0.5,0.2-1,0.4-1.5c0.1,0.5,0.2,1.1,0.4,1.5
	c0.1,0.5,0.2,0.9,0.4,1.3l9.1,32.4h7l12.9-47.4h-6.1c-0.7,0-1.2,0.2-1.7,0.6s-0.8,0.9-0.9,1.4l-7.1,28.4c-0.2,0.7-0.3,1.4-0.4,2.2
	c-0.1,0.8-0.3,1.6-0.4,2.5c-0.3-1.7-0.7-3.3-1.1-4.7l-8.1-28.4c-0.2-0.6-0.5-1.1-0.9-1.5s-1-0.5-1.7-0.5H499c-0.7,0-1.2,0.2-1.7,0.6
	s-0.8,0.9-0.9,1.4l-8.2,28.4c-0.2,0.7-0.4,1.5-0.6,2.3s-0.4,1.7-0.5,2.6c-0.1-0.9-0.3-1.8-0.4-2.6s-0.3-1.6-0.5-2.3l-7.1-28.4
	c-0.2-0.6-0.5-1.1-0.9-1.5c-0.5-0.4-1-0.5-1.7-0.5H470L483,172.5z M543.3,172.5h7l9.2-32.4c0.1-0.4,0.2-0.9,0.4-1.3
	c0.1-0.5,0.2-1,0.4-1.5c0.1,0.5,0.2,1.1,0.4,1.5c0.1,0.5,0.2,0.9,0.4,1.3l9.1,32.4h7L590,125h-6c-0.7,0-1.2,0.2-1.7,0.6
	s-0.8,0.9-0.9,1.4l-7.1,28.4c-0.2,0.7-0.3,1.4-0.4,2.2c-0.1,0.8-0.3,1.6-0.4,2.5c-0.3-1.7-0.7-3.3-1.1-4.7l-8.1-28.4
	c-0.2-0.6-0.5-1.1-0.9-1.5s-1-0.5-1.7-0.5h-2.3c-0.7,0-1.2,0.2-1.7,0.6s-0.8,0.9-0.9,1.4l-8.2,28.4c-0.2,0.7-0.4,1.5-0.6,2.3
	c-0.2,0.8-0.4,1.7-0.5,2.6c-0.1-0.9-0.3-1.8-0.4-2.6c-0.1-0.8-0.3-1.6-0.5-2.3l-7.1-28.4c-0.2-0.6-0.5-1.1-0.9-1.5
	c-0.5-0.4-1-0.5-1.7-0.5h-6.5L543.3,172.5z"/>
<path fill="#FF7007" d="M372.2,100.7l12.4,10c0,0,19.6-49.2,48.7-62.6c0,0,23.9,10,21.5,31.3c0,0,1.9,18.4,20.5,8.8
	c0,0,33.4-35.8,44.4-16.2c0,0,3.8,19.1,10.5,15.3c0,0,8.6-38.7,19.1-44.4c0,0,43.9,22.4,59.2,67.8l13.8-3.3c0,0-14.3-56.3-70.7-81.2
	c0,0-64-31.5-127.9,10.5C423.8,36.7,386.5,63,372.2,100.7z"/>
<path fill="#FF7007" d="M372.2,189H419c0,0,41.5,6.2,24.8,33.4c0,0-10.5,2.4-2.4,16.7c0,0,8.1,21.5,33.9,25.8c0,0,39.6,6.7,56.3-6.2
	c0,0-30.6-21-21.5-38.7c0,0,15.8-23.4,34.4-3.8c0,0,7.2,12.9,7.2,22.4c0,0,7.6-2.9,9.5-25.3c0,0-2.4-24.4,19.1-24.4h42
	c0,0-9.5,55.9-68.3,81.7c0,0-53.5,29.1-108.4,2.9C445.7,273.5,376,236.3,372.2,189z"/>
<path fill="#FF7007" d="M373.7,100.4c2.9,0,5.6,0.4,8,1.2c14.5-32.3,36.5-68.1,77.1-53c6.5,2.4,16.5,8.4,21,15.3l0.9-0.2
	c3.7-2.3,11.9-3.7,16.1-4.9c5.1-1.4,11.5-3.5,16.9-3.4c0.6,0,1.3-0.1,1.9-0.1c2.9-7.3,15.2-12.3,21.6-14.6c7.4-2.6,19,0,24,6.3
	c5.6,7.1,14.2,10.7,20.3,17.4c8,8.7,14.4,16.7,23.9,24.1c3.9,3,6.3,6.4,7.6,9.9c4,2.1,7,5.3,9.1,9.1c0.4-0.1,0.9-0.3,1.3-0.4
	c-17.8-53.6-67.9-92.2-127-92.2c-56.7,0-105.1,35.5-124.6,85.7C372.2,100.4,372.9,100.4,373.7,100.4z"/>
<path fill="#FF7007" d="M584.3,189.3c-1.4,6.4-3.2,12.8-5.5,18.9c-7.3,19.6-18.5,39.4-36.3,51.4c-31.1,21-80.2,16.7-105.7-11.4
	c-5.8-6.5-9.8-14.5-11.8-22.9c-1.2-5.1-1.3-10.5-2.1-15.7c-0.2-1.2-1.1-3.2-1.6-4.5c-2.3-0.6-8.8-4.2-8.4-3.9
	c-3.8-2.6-7.4-5.7-10.2-9.4c-0.7-0.9-1.3-1.9-1.9-2.9h-32.9c16.6,55.6,67.7,96.2,128.2,96.2c60.4,0,111.4-40.3,128.1-95.7
	L584.3,189.3L584.3,189.3z"/>
</svg>
