<?xml version="1.0" encoding="iso-8859-1"?>
<!-- Generator: Adobe Illustrator 17.1.0, SVG Export Plug-In . SVG Version: 6.00 Build 0)  -->
<!DOCTYPE svg PUBLIC "-//W3C//DTD SVG 1.1//EN" "http://www.w3.org/Graphics/SVG/1.1/DTD/svg11.dtd">
<svg version="1.1" id="Layer_1" xmlns="http://www.w3.org/2000/svg" xmlns:xlink="http://www.w3.org/1999/xlink" x="0px" y="0px"
	 viewBox="3.623 0 992.784 1000" style="enable-background:new 3.623 0 992.784 1000;" xml:space="preserve">
<path style="fill:#FF7007;" d="M933.545,364.764H780.254l40.55,56.22h56.461c34.722,0,62.832,28.11,62.832,62.772v397.252
	c0,34.662-28.14,62.772-62.832,62.772H479.529c-34.722,0-62.862-28.11-62.862-62.772V720.682l-55.284-76.661
	c-0.362-0.151-0.664-0.393-0.996-0.543v293.75c0,34.662,28.14,62.772,62.862,62.772h510.296c34.722,0,62.862-28.11,62.862-62.772
	V427.536C996.377,392.874,968.237,364.764,933.545,364.764z"/>
<path style="fill:#FF7007;" d="M198.943,635.236h82.729v-56.22h-82.729V635.236z"/>
<path style="fill:#FF7007;" d="M60.688,523.943H3.623v48.49c0,34.662,28.14,62.772,62.862,62.772h69.837v-56.22h-13.557
	C90.7,579.016,64.523,554.952,60.688,523.943z"/>
<path style="fill:#FF7007;" d="M3.623,362.802v87.319h56.28v-87.319H3.623z"/>
<path style="fill:#FF7007;" d="M3.623,207.277v93.871h56.28v-93.871H3.623z"/>
<path style="fill:#FF7007;" d="M140.972,0H66.485C31.763,0,3.623,28.11,3.623,62.772v73.49h56.28v-17.271
	c0-34.662,28.14-62.772,62.862-62.772h18.237V0H140.972z"/>
<path style="fill:#FF7007;" d="M296.709,0h-96.83v56.22h96.8V0H296.709z"/>
<path style="fill:#FF7007;" d="M455.223,0H364.04v56.22h91.184L455.223,0L455.223,0z"/>
<path style="fill:#FF7007;" d="M583.333,118.992v27.566h56.28V62.772C639.613,28.11,611.473,0,576.751,0h-56.069v56.25
	C555.314,56.371,583.333,84.39,583.333,118.992z"/>
<path style="fill:#FF7007;" d="M817.21,712.379c-41.274,54.952-138.828,94.928-138.828,94.928
	c-31.643,22.917-100.996-23.611-147.705-60.9l0,0l-0.151-0.121c-15.821-12.621-29.016-24.155-37.228-31.582l-6.371-5.405l0,0
	l-4.559-3.865c-0.664-0.725-1.328-1.449-1.963-2.204c-9.873-8.907-29.982-25.876-53.019-39.312l-29.74-14.402
	c-19.022-9.209-26.963-32.065-17.723-51.057c9.209-18.992,32.095-26.932,51.117-17.723l31.28,15.157l0,0
	c0,0,30.012,13.406,42.723,16.938c8.303,2.053,13.225,1.359,1.842-8.816l0.06-0.121l-5.223-4.529c0,0-0.03,0-0.03,0.03
	l-78.382-70.079c-15.761-14.07-17.089-38.255-2.989-53.986c14.1-15.731,38.315-17.059,54.046-2.989l65.187,58.303
	c0,0,6.854,2.053,6.914-3.321c-0.03,0-0.03-0.03-0.06-0.06c0.03-0.03,0.06-0.091,0.121-0.121l-2.929-3.472
	c-0.483-1.087-1.268-1.902-2.144-2.566l-48.581-57.82c-12.319-14.644-10.386-36.473,4.257-48.762
	c14.674-12.289,36.534-10.386,48.822,4.257l57.307,68.176c2.265-1.178,4.529-2.265,6.824-3.382l-39.795-57.548
	c-10.87-15.731-6.944-37.289,8.816-48.158s37.349-6.914,48.219,8.816l50.272,72.675c4.167-1.027,8.182-1.932,11.987-2.748
	l-21.135-51.902c-7.216-17.723,1.328-37.893,19.052-45.109c17.723-7.216,37.953,1.328,45.169,19.022l46.377,113.979
	C875.966,688.949,817.21,712.379,817.21,712.379z M673.883,689.312l-90.127-56.733c-7.156-4.499-16.636-2.355-21.135,4.801
	c-4.499,7.156-2.355,16.606,4.801,21.105l90.157,56.733c7.156,4.499,16.606,2.355,21.135-4.801
	C683.182,703.261,681.039,693.81,673.883,689.312z M635.96,559.994c-5.133-6.703-14.764-8.001-21.498-2.868
	s-8.001,14.734-2.868,21.467l71.739,93.659c5.133,6.703,14.764,8.001,21.498,2.868c6.733-5.133,8.001-14.734,2.868-21.467
	L635.96,559.994z M754.801,638.134l-40.036-98.611c-3.17-7.82-12.107-11.594-19.958-8.424c-7.85,3.17-11.624,12.107-8.424,19.928
	l40.036,98.611c3.17,7.82,12.107,11.594,19.958,8.424C754.197,654.891,758.001,645.954,754.801,638.134z"/>
</svg>
