<?xml version="1.0" encoding="utf-8"?>
<!-- Generator: Adobe Illustrator 18.1.1, SVG Export Plug-In . SVG Version: 6.00 Build 0)  -->
<!DOCTYPE svg PUBLIC "-//W3C//DTD SVG 1.1//EN" "http://www.w3.org/Graphics/SVG/1.1/DTD/svg11.dtd">
<svg version="1.1" id="Layer_1" xmlns="http://www.w3.org/2000/svg" xmlns:xlink="http://www.w3.org/1999/xlink" x="0px" y="0px"
	 viewBox="351.9 25.1 296.4 249.8" enable-background="new 351.9 25.1 296.4 249.8" xml:space="preserve">
<path fill="#FF7007" d="M511.1,263.3c-37.7,3.7-75.4,7.6-113,11.1c-21,2-26.1-1.9-28.3-23c-6.1-58-11.9-116-17.5-174
	c-2-20.4,2.9-26.9,22.7-29c76-8,152.1-15.6,228.2-23c18.8-1.8,25,3.4,26.9,22.5c6.1,58.7,12,117.4,17.7,176.2
	c2,20.6-2.3,25.4-23.7,27.6c-37.7,3.9-75.4,7.5-113,11.2C511,263.1,511.1,263.2,511.1,263.3z M395.9,246.6
	c76.1-7.5,150.3-14.9,224.7-22.2c-4.3-43.3-8.4-85.1-12.8-129.7c-8.8,8.6-16.1,15.3-23,22.4c-21.4,21.9-42.4,44.1-63.9,65.8
	c-13.6,13.7-18,14.3-34,3.7c-27.9-18.5-55.4-37.6-83.2-56.4c-6.2-4.2-12.5-8-20.6-13.1C387.6,162.1,391.6,203.4,395.9,246.6z
	 M371.5,76.5l130,88.2L608.5,53L371.5,76.5z"/>
</svg>
