<?xml version="1.0" encoding="utf-8"?>
<!-- Generator: Adobe Illustrator 18.1.1, SVG Export Plug-In . SVG Version: 6.00 Build 0)  -->
<!DOCTYPE svg PUBLIC "-//W3C//DTD SVG 1.1//EN" "http://www.w3.org/Graphics/SVG/1.1/DTD/svg11.dtd">
<svg version="1.1" id="Layer_1" xmlns="http://www.w3.org/2000/svg" xmlns:xlink="http://www.w3.org/1999/xlink" x="0px" y="0px"
	 viewBox="351.8 29.3 296.7 241.2" enable-background="new 351.8 29.3 296.7 241.2" xml:space="preserve">
<path fill="#FF7007" d="M500.1,270.4c-40.1,0-80.3,0.1-120.4,0c-22.4-0.1-27.3-4.8-27.5-27.2c-0.3-61.7-0.5-123.5-0.4-185.2
	c0-21.7,5.8-28.1,27-28.2c81.1-0.5,162.1-0.6,243.2-0.5c20.1,0,26,6.2,26.1,26.5c0.3,62.5,0.4,125,0.3,187.5
	c-0.1,21.9-5,26.5-27.9,26.7c-40.1,0.2-80.3,0.1-120.4,0.1C500.1,270.2,500.1,270.3,500.1,270.4z M380.3,240.8
	c81.1,0,160.1,0,239.4,0c0-46.1,0-90.6,0-138.1c-10.2,8.1-18.6,14.5-26.6,21.2c-24.8,20.9-49.3,42.1-74.3,62.7
	c-15.7,13-20.4,13.2-36.2,0.3c-27.5-22.4-54.6-45.4-81.9-68.1c-6.1-5-12.4-9.7-20.4-15.9C380.3,150.9,380.3,194.8,380.3,240.8z
	 M372.2,59.1l128,106.6L624.8,59.1H372.2z"/>
</svg>
