<?xml version="1.0" encoding="utf-8"?>
<!-- Generator: Adobe Illustrator 18.1.1, SVG Export Plug-In . SVG Version: 6.00 Build 0)  -->
<!DOCTYPE svg PUBLIC "-//W3C//DTD SVG 1.1//EN" "http://www.w3.org/Graphics/SVG/1.1/DTD/svg11.dtd">
<svg version="1.1" id="Layer_1" xmlns="http://www.w3.org/2000/svg" xmlns:xlink="http://www.w3.org/1999/xlink" x="0px" y="0px"
	 viewBox="351.1 97.8 297.4 103.6" enable-background="new 351.1 97.8 297.4 103.6" xml:space="preserve">
<path fill="#FF7007" d="M384.7,158h-26.1c-4.1,0-7.5-3.4-7.5-7.5l0,0c0-4.1,3.4-7.5,7.5-7.5h26.1c4.1,0,7.5,3.4,7.5,7.5l0,0
	C392.2,154.6,388.8,158,384.7,158z"/>
<path fill="#FF7007" d="M641,158h-26c-4.1,0-7.5-3.4-7.5-7.5l0,0c0-4.1,3.4-7.5,7.5-7.5h26c4.1,0,7.5,3.4,7.5,7.5l0,0
	C648.5,154.6,645.2,158,641,158z"/>
<path fill="#FF7007" d="M507.7,138.2l-27.8,20.4l-8-10.9l27.8-20.4L507.7,138.2z"/>
<path fill="#FF7007" d="M499.6,127.3l29.2,18.3l-7.2,11.5l-29.2-18.3L499.6,127.3z"/>
<path fill="#FF7007" d="M484.6,149.6c0,28.6-23.2,51.8-51.8,51.8c-28.6,0-51.8-23.2-51.8-51.8s23.2-51.8,51.8-51.8
	S484.6,121,484.6,149.6z M432.8,113c-20.2,0-36.6,16.4-36.6,36.6s16.4,36.6,36.6,36.6s36.6-16.4,36.6-36.6S453,113,432.8,113z"/>
<path fill="#FF7007" d="M619.3,149.6c0,28.6-23.2,51.8-51.8,51.8s-51.8-23.2-51.8-51.8s23.2-51.8,51.8-51.8S619.3,121,619.3,149.6z
	 M567.5,113c-20.2,0-36.6,16.4-36.6,36.6s16.4,36.6,36.6,36.6c20.2,0,36.6-16.4,36.6-36.6S587.7,113,567.5,113z"/>
</svg>
