<?xml version="1.0" encoding="utf-8"?>
<!-- Generator: Adobe Illustrator 18.1.1, SVG Export Plug-In . SVG Version: 6.00 Build 0)  -->
<!DOCTYPE svg PUBLIC "-//W3C//DTD SVG 1.1//EN" "http://www.w3.org/Graphics/SVG/1.1/DTD/svg11.dtd">
<svg version="1.1" id="Layer_1" xmlns="http://www.w3.org/2000/svg" xmlns:xlink="http://www.w3.org/1999/xlink" x="0px" y="0px"
	 viewBox="352.8 12.4 294.6 273.8" enable-background="new 352.8 12.4 294.6 273.8" xml:space="preserve">
<path fill="#FF7007" d="M647.4,194.8V125h-75.3c-0.3,0.3-0.8,0.6-1.3,0.8c-3.5,1.1-7.1,1.4-10.7,2.2c-2.7,0.6-5,1.8-7.2,3.2
	c2.1,1.9,1.4,6.1-2,5.9c-4.5-0.3-8.2-1.9-12.2-3.6c-67.2,39.8-27.9,102.1-27.9,102.1c25.4-7.5,60.4-60.6,60.4-60.6
	c22.8-2.2,14,21.1,14,21.1c-42.5,56.2-76.7,60.6-76.7,60.6c-61.3,17.6-75.8-35.6-75.8-35.6v-48.7h-24.5v46.2
	c0.4,0.8,0.5,1.7,0.3,2.6c9.3,44.6,50.1,58.4,50.1,58.4c52.1,20.2,89.4-12.3,89.4-12.3c47,16.9,74-8.2,87.7-29.6
	c-0.1-0.4-0.2-0.8-0.1-1.2c0.4-5,2.6-9,4.9-13.4c3.8-7,3.8-13.9,4.3-21.7c0-0.4,0.1-0.8,0.3-1.1
	C643.2,198.4,644.9,195.2,647.4,194.8z"/>
<path fill="#FF7007" d="M478.4,84.4c0-0.3,0-0.7,0-1c-0.1-1.5-0.7-2.5-1.8-2.9H365.8c-1.5,0.3-2.4,1.3-2.4,3.1
	c0,11.4-0.1,22.7,0.2,34.1c0.3,12.2,4.4,23.2,11.8,32.9c3.7,4.8,8,9,13.1,12.4c5.9,4,12.3,6.9,19.2,8.6c0.2,0.1,0.5,0.1,0.8,0.2
	c0,0.4,0.1,0.9,0.1,1.3c0,1.2,0,2.4,0,3.6c8.1,3.5,15.5,5.5,23.7,5.9c-0.1-1.4,0.1-2.9,0.1-4.4c0-1.1,0.5-2,1.2-2.5
	c0-0.9,0-1.8,0-2.7c0-0.4,0-0.8,0-1.1c2.8-0.9,5.5-1.7,8.2-2.7c7-2.7,13.3-6.7,18.8-11.9c2.9-2.8,5.5-5.8,7.8-9.1
	c3-4.3,5.3-8.9,7-13.9c2.3-6.6,3.2-13.4,3.2-20.4C478.4,104.1,478.4,94.3,478.4,84.4z"/>
<path fill="#FF7007" d="M405.1,24.7h-24.5v45h24.5V24.7L405.1,24.7z"/>
<path fill="#FF7007" d="M392.8,12.4L392.8,12.4c-6.8,0-12.3,5.5-12.3,12.3v20.4c0,6.8,5.5,12.3,12.3,12.3l0,0
	c6.8,0,12.3-5.5,12.3-12.3V24.7C405.1,17.9,399.6,12.4,392.8,12.4z"/>
<path fill="#FF7007" d="M461.3,24.7h-24.5v45h24.5V24.7z"/>
<path fill="#FF7007" d="M449.1,12.4L449.1,12.4c-6.8,0-12.3,5.5-12.3,12.3v20.4c0,6.8,5.5,12.3,12.3,12.3l0,0
	c6.8,0,12.3-5.5,12.3-12.3V24.7C461.3,17.9,455.9,12.4,449.1,12.4z"/>
<path fill="#FF7007" d="M365.2,80.5h111.5c6.8,0,12.4,5.5,12.4,12.4l0,0c0,6.8-5.5,12.4-12.4,12.4H365.2c-6.8,0-12.4-5.5-12.4-12.4
	l0,0C352.8,86,358.4,80.5,365.2,80.5z"/>
<path fill="#FF7007" d="M408.3,169.4c0,0-1.4,42.8,0.4,52.5l18.2-14.5l-5-41.1L408.3,169.4z"/>
<path fill="#FF7007" d="M433.9,170.4c0,0-2.5,47.8,1.7,58h-5.4l-3.3-19.7l-1.5-39.2L433.9,170.4z"/>
<path fill="#FF7007" d="M564.2,185c0,0,5.9-13.2,16.6-8.9l10.3-6.7l-21-11.4l-20.6,11.4L564.2,185z"/>
<path fill="#FF7007" d="M571.7,125c0,0-18.6-1.6-37.9,11.5l6.6,21.6l39.2-20.2L571.7,125z"/>
<path fill="#FF7007" d="M596.2,125c0,0-32.5-1.2-42.2,2.3l23.4,14.3L596.2,125z"/>
<path fill="#FF7007" d="M647.4,194.1c0,0-0.2,32.8-18.5,52.9l-9.9-38.5L647.4,194.1z"/>
<path fill="#FF7007" d="M547.3,129.4c0,0,7.5-8.9,100.1-4.4l-38.7,41.3l-69.9-13.4L547.3,129.4z"/>
</svg>
