<?xml version="1.0" encoding="utf-8"?>
<!-- Generator: Adobe Illustrator 18.1.1, SVG Export Plug-In . SVG Version: 6.00 Build 0)  -->
<!DOCTYPE svg PUBLIC "-//W3C//DTD SVG 1.1//EN" "http://www.w3.org/Graphics/SVG/1.1/DTD/svg11.dtd">
<svg version="1.1" id="Layer_1" xmlns="http://www.w3.org/2000/svg" xmlns:xlink="http://www.w3.org/1999/xlink" x="0px" y="0px"
	 viewBox="353 22.4 295.2 261" enable-background="new 353 22.4 295.2 261" xml:space="preserve">
<path fill="#FF7007" d="M353,117.8h295.2L628.5,152l19.7,34.6H353l19.7-34.2L353,117.8z M392.7,163.2c-1.2-0.5-2.2-1.3-3-2.3
	s-1.5-2.2-2-3.7s-0.7-3.1-0.7-5c0-1.7,0.2-3.3,0.7-4.7c0.4-1.4,1.1-2.6,1.9-3.6s1.8-1.8,3-2.3s2.5-0.8,3.9-0.8
	c0.9,0,1.7,0.1,2.3,0.2c0.7,0.1,1.3,0.3,1.8,0.5s1,0.5,1.5,0.7c0.4,0.3,0.9,0.6,1.3,0.8c0.3,0.2,0.7,0.4,1,0.4
	c0.5,0,0.9-0.3,1.2-0.8l1.6-2.7c-1.2-1.3-2.7-2.3-4.4-3.1c-1.7-0.8-3.8-1.2-6.2-1.2c-2.3,0-4.4,0.4-6.3,1.2s-3.4,1.9-4.8,3.4
	c-1.3,1.5-2.3,3.2-3,5.2s-1.1,4.3-1.1,6.7s0.4,4.6,1.1,6.6s1.7,3.8,3,5.2c1.3,1.5,2.8,2.6,4.6,3.4c1.8,0.8,3.7,1.2,5.9,1.2
	c1.2,0,2.3-0.1,3.3-0.2c1-0.1,2-0.4,2.9-0.6c0.9-0.3,1.8-0.6,2.6-1.1c0.8-0.4,1.6-1,2.3-1.6v-13.1h-9.7v3.4c0,0.3,0.1,0.6,0.3,0.8
	c0.2,0.2,0.5,0.3,0.8,0.3h3.6v5.9c-0.8,0.4-1.7,0.8-2.6,1s-2,0.4-3.2,0.4C395.1,164,393.9,163.7,392.7,163.2z M421.2,163
	c-0.8-0.4-1.5-0.9-2.1-1.6c-0.6-0.7-1-1.6-1.3-2.6s-0.4-2.1-0.4-3.4V136H412v19.4c0,1.9,0.3,3.7,0.8,5.3c0.6,1.6,1.4,3,2.4,4.2
	s2.3,2.1,3.8,2.8s3.2,1,5,1s3.5-0.3,5-1s2.8-1.6,3.8-2.8s1.8-2.6,2.4-4.2c0.6-1.6,0.8-3.4,0.8-5.3V136h-5.4v19.4
	c0,1.2-0.2,2.4-0.5,3.4s-0.7,1.8-1.3,2.6c-0.6,0.7-1.3,1.2-2.1,1.6c-0.8,0.4-1.8,0.6-2.8,0.6S422,163.4,421.2,163z M454.6,136.1
	h-5.5l-11.4,32.4h4.2c0.5,0,0.8-0.1,1.2-0.4s0.5-0.6,0.6-0.9l2.2-6.6H458l2.2,6.6c0.1,0.4,0.4,0.7,0.7,1c0.3,0.3,0.7,0.4,1.2,0.4
	h4.2L454.6,136.1z M450.8,145.5c0.2-0.5,0.4-1.1,0.5-1.7c0.2-0.7,0.4-1.4,0.6-2.1c0.2,0.8,0.4,1.5,0.6,2.1s0.4,1.2,0.5,1.7l3.5,10.8
	h-9.3L450.8,145.5z M477,155.8c0.5,0,0.9,0.1,1.2,0.2s0.5,0.4,0.8,0.8l6.1,10.4c0.2,0.4,0.5,0.7,0.8,0.9s0.7,0.3,1.2,0.3h4.9
	l-7.3-11.9c-0.5-0.8-1.1-1.4-1.8-1.9c1-0.4,1.9-0.8,2.7-1.4c0.8-0.6,1.5-1.3,2-2.1s1-1.7,1.2-2.6c0.3-1,0.4-2,0.4-3.1
	c0-1.4-0.2-2.6-0.6-3.8c-0.4-1.1-1.1-2.1-2-2.9c-0.9-0.8-2.1-1.5-3.5-1.9c-1.4-0.5-3.1-0.7-5.1-0.7h-8.9v32.4h5.4v-12.6L477,155.8
	L477,155.8z M474.7,140.7h3.5c2,0,3.5,0.4,4.5,1.3c1,0.9,1.5,2.1,1.5,3.8c0,0.8-0.1,1.6-0.4,2.3c-0.2,0.7-0.6,1.3-1.1,1.8
	s-1.1,0.9-1.9,1.2s-1.6,0.4-2.7,0.4h-3.4V140.7L474.7,140.7z M509.6,136.1H504l-11.4,32.4h4.2c0.5,0,0.8-0.1,1.2-0.4
	c0.3-0.3,0.5-0.6,0.6-0.9l2.2-6.6h12.1l2.2,6.6c0.1,0.4,0.4,0.7,0.7,1s0.7,0.4,1.2,0.4h4.2L509.6,136.1z M505.7,145.5
	c0.2-0.5,0.4-1.1,0.5-1.7c0.2-0.7,0.4-1.4,0.6-2.1c0.2,0.8,0.4,1.5,0.6,2.1c0.2,0.7,0.4,1.2,0.5,1.7l3.5,10.8h-9.3L505.7,145.5z
	 M526.8,136.1H524v32.4h4.8v-19.9c0-0.4,0-0.8,0-1.3s-0.1-0.9-0.1-1.4l15.2,21.5c0.3,0.4,0.5,0.7,0.8,0.8c0.3,0.2,0.6,0.2,1.1,0.2
	h2.8V136h-4.8v19.7c0,0.4,0,0.9,0,1.4s0.1,1,0.1,1.5L528.6,137c-0.1-0.2-0.3-0.4-0.4-0.5c-0.1-0.1-0.2-0.2-0.4-0.3
	c-0.1-0.1-0.3-0.1-0.4-0.1C527.3,136.1,527.1,136.1,526.8,136.1z M551.9,136.1v4.9h8.8v27.4h5.4V141h8.7v-4.9H551.9z M578.3,136.1
	v32.4h18.3v-4.8h-12.9v-9.2h10.2v-4.6h-10.2v-9h12.9v-4.8L578.3,136.1L578.3,136.1z M601.4,136.1v32.4h18.3v-4.8h-12.9v-9.2H617
	v-4.6h-10.2v-9h12.9v-4.8L601.4,136.1L601.4,136.1z"/>
<path fill="#FF7007" d="M583.9,107.5h17.9V83.9h-17.9V107.5z"/>
<path fill="#FF7007" d="M559.2,56.9V39.1h-38.9V57L559.2,56.9L559.2,56.9z"/>
<path fill="#FF7007" d="M520.9,56.9l9.7-15.7l-30.5-18.8l-9.7,15.7L520.9,56.9z"/>
<path fill="none" stroke="#FF7007" stroke-width="16" stroke-miterlimit="10" d="M551.9,44.9c0,0,10.9,36.3,42.3,47.3"/>
<path fill="#FF7007" d="M417.1,107.5h-17.7V83.9h17.7V107.5L417.1,107.5z"/>
<path fill="#FF7007" d="M441.6,56.9V39.1h38.6V57L441.6,56.9L441.6,56.9z"/>
<path fill="#FF7007" d="M479.5,56.9l-9.6-15.7l30.2-18.8l9.6,15.7L479.5,56.9z"/>
<path fill="none" stroke="#FF7007" stroke-width="16" stroke-miterlimit="10" d="M448.8,44.9c0,0-10.8,36.3-41.9,47.3"/>
<path fill="#FF7007" d="M441.6,39.1c0,0-8.2,34.6-35.3,44.8l11.8,1.1l33.7-40.1l-3.1-5.8L441.6,39.1L441.6,39.1z"/>
<path fill="#FF7007" d="M559.2,39.1c0,0,7.3,22.5,17.8,34.2l-16.8-10.6l-9.7-20l4.1-3.5L559.2,39.1L559.2,39.1z"/>
<path fill="#FF7007" d="M433.6,107.5h134.5V101c0,0-23.1-8.2-28.2-29.6h-23.8l-15.2-10.7l-15.2,10.7h-25.5l16.2,33L433.6,107.5z"/>
<path fill="#FF7007" d="M540.8,71.4c0,0,3.4,20.3,27.3,29.6l-27.3-1.4l-12.6-25.5l3-2.7C531.3,71.4,540.8,71.4,540.8,71.4z"/>
<path fill="#FF7007" d="M567.3,107.5H433.1V101c0,0,23-8.2,28.2-29.6H485l15.1-10.7l15.1,10.7h25.4l-16.2,33L567.3,107.5z"/>
<path fill="#FF7007" d="M460.3,71.4c0,0-3.4,20.3-27.2,29.6l27.2-1.4l12.6-25.5l-3-2.7C469.8,71.4,460.3,71.4,460.3,71.4z"/>
<path fill="none" d="M499.8,60.9l0.7-0.5l0.6,0.4l-0.6,1.1L499.8,60.9z"/>
<path fill="#FF7007" d="M583.9,197h17.9v24h-17.9V197z"/>
<path fill="#FF7007" d="M559.2,248.4v18.2h-38.9v-18.2L559.2,248.4L559.2,248.4z"/>
<path fill="#FF7007" d="M520.9,248.4l9.7,15.9l-30.5,19.1l-9.7-15.9L520.9,248.4z"/>
<path fill="none" stroke="#FF7007" stroke-width="16" stroke-miterlimit="10" d="M551.9,260.7c0,0,10.9-36.9,42.3-48.1"/>
<path fill="#FF7007" d="M417.1,197h-17.7v24h17.7V197L417.1,197z"/>
<path fill="#FF7007" d="M441.6,248.4v18.2h38.6v-18.2L441.6,248.4L441.6,248.4z"/>
<path fill="#FF7007" d="M479.5,248.4l-9.6,15.9l30.2,19.1l9.6-15.9L479.5,248.4z"/>
<path fill="none" stroke="#FF7007" stroke-width="16" stroke-miterlimit="10" d="M448.8,260.7c0,0-10.8-36.9-41.9-48.1"/>
<path fill="#FF7007" d="M441.6,266.6c0,0-8.2-35.2-35.3-45.6l11.8-1.1l33.7,40.7l-3.1,5.9L441.6,266.6L441.6,266.6z"/>
<path fill="#FF7007" d="M559.2,266.6c0,0,7.3-22.9,17.8-34.8l-16.8,10.8l-9.7,20.4l4.1,3.6H559.2L559.2,266.6z"/>
<path fill="#FF7007" d="M433.6,197h134.5v6.7c0,0-23.1,8.3-28.2,30.1h-23.8l-15.2,10.9l-15.2-10.9h-25.5l16.2-33.6L433.6,197z"/>
<path fill="#FF7007" d="M540.8,233.7c0,0,3.4-20.7,27.3-30.1l-27.3,1.4l-12.6,26l3,2.7H540.8L540.8,233.7z"/>
<path fill="#FF7007" d="M567.3,197H433.1v6.7c0,0,23,8.3,28.2,30.1H485l15.1,10.9l15.1-10.9h25.4l-16.2-33.6L567.3,197z"/>
<path fill="#FF7007" d="M460.3,233.7c0,0-3.4-20.7-27.2-30.1l27.2,1.4l12.6,25.9l-3,2.7L460.3,233.7L460.3,233.7z"/>
<path fill="#999999" d="M499.8,244.4l0.7,0.5l0.6-0.4l-0.6-1.1L499.8,244.4z"/>
</svg>
