<?xml version="1.0" encoding="utf-8"?>
<!-- Generator: Adobe Illustrator 18.1.1, SVG Export Plug-In . SVG Version: 6.00 Build 0)  -->
<!DOCTYPE svg PUBLIC "-//W3C//DTD SVG 1.1//EN" "http://www.w3.org/Graphics/SVG/1.1/DTD/svg11.dtd">
<svg version="1.1" id="Layer_1" xmlns="http://www.w3.org/2000/svg" xmlns:xlink="http://www.w3.org/1999/xlink" x="0px" y="0px"
	 viewBox="352.1 8.4 296.2 284.3" enable-background="new 352.1 8.4 296.2 284.3" xml:space="preserve">
<path fill="#FF7007" d="M402.1,233.1L402.1,233.1c10.2,0,18.4-8.2,18.4-18.4V126c0-10.2-8.3-18.4-18.4-18.4l0,0
	c-10.2,0-18.4,8.2-18.4,18.4v88.7C383.7,224.9,392,233.1,402.1,233.1z"/>
<path fill="#FF7007" d="M397.4,117.2c-25.4,2.6-45.3,25.8-45.3,54s19.9,51.4,45.3,54V117.2z"/>
<path fill="#FF7007" d="M598.3,233.1L598.3,233.1c-10.2,0-18.4-8.2-18.4-18.4V126c0-10.2,8.3-18.4,18.4-18.4l0,0
	c10.2,0,18.4,8.2,18.4,18.4v88.7C616.7,224.9,608.4,233.1,598.3,233.1z"/>
<path fill="#FF7007" d="M603,117.2c25.4,2.6,45.3,25.8,45.3,54s-19.9,51.4-45.3,54V117.2z"/>
<path fill="#FF7007" d="M517.2,292.7h-28.7c-10.7,0-19.3-8.6-19.3-19.3l0,0c0-10.6,8.6-19.3,19.3-19.3h28.7
	c10.7,0,19.3,8.6,19.3,19.3l0,0C536.5,284,527.8,292.7,517.2,292.7z"/>
<path fill="#FF7007" d="M412.2,110.6c0,0-1.8-64.3,72-82.6c0,0,53.1-12.8,88.2,36.2c0,0,15.6,20.4,15.8,46.4l13.1,4.2l6.4-4.6
	c0,0,2.2-55.3-52.9-87.6c0,0-52.7-33.1-113.2,1.9c0,0-47.1,25.8-48.9,85.7l19.2,16.7L412.2,110.6z"/>
<path fill="none" stroke="#FF7007" stroke-width="20" stroke-miterlimit="10" d="M522.8,273.4c0,0,76.7,16.9,78.4-56.2"/>
</svg>
