<?xml version="1.0" encoding="iso-8859-1"?>
<!-- Generator: Adobe Illustrator 17.1.0, SVG Export Plug-In . SVG Version: 6.00 Build 0)  -->
<!DOCTYPE svg PUBLIC "-//W3C//DTD SVG 1.1//EN" "http://www.w3.org/Graphics/SVG/1.1/DTD/svg11.dtd">
<svg version="1.1" id="Layer_1" xmlns="http://www.w3.org/2000/svg" xmlns:xlink="http://www.w3.org/1999/xlink" x="0px" y="0px"
	 viewBox="0 39.414 1000.013 921.183" style="enable-background:new 0 39.414 1000.013 921.183;" xml:space="preserve">
<path style="fill:#FF7007;" d="M813.411,39.695c-108.662-5.765-201.404,77.748-207.139,186.559
	c-1.702,32.198,4.6,62.873,16.906,90.382c5.078-2.539,10.185-4.63,15.323-6.661c-11.29-25.209-16.965-53.345-15.412-82.855
	c5.257-99.492,90.084-175.896,189.456-170.609s175.657,90.203,170.37,189.725c-4.331,82.049-62.814,148.238-138.889,166.039
	c1.971,5.346,3.973,10.693,5.944,15.98c82.168-20.161,145.042-92.174,149.761-181.123
	C1005.496,138.351,922.073,45.46,813.411,39.695z"/>
<path style="fill:#FF7007;" d="M690.92,209.677c-8.453-14.277-18.459-27.031-29.48-38.471c-5.108,10.424-8.513,21.714-10.573,33.244
	c6.989,4.66,13.142,10.753,17.712,18.459c16.189,27.419,7.139,62.814-20.251,79.062c-27.389,16.219-62.754,7.139-78.943-20.281
	c-16.189-27.419-7.139-62.814,20.251-79.062c1.314-0.777,2.748-1.225,4.092-1.912c3.554-22.969,10.783-45.131,22.431-65.114
	c-62.933-36.44-143.07-38.829-210.066,0.866c-68.698,40.711-105.436,114.815-101.792,189.486c-0.299,3.704-0.687,7.407-0.777,11.141
	c-0.149,7.318,3.106,14.665,4.6,22.043c0.538,2.628,0.448,5.376,0.717,9.02c-83.99,49.761-166.786,98.805-248.208,147.043
	C40.114,547.133,20.341,577.837,0,609.468c2.778,13.62,16.637,15.502,26.941,19.922c14.934,6.362,31.541,6.989,47.82,7.019
	c9.677,0,19.385-0.239,28.674-0.388c11.738-18.877,23.865-36.589,37.784-52.479c11.32,3.017,21.237,5.675,31.033,8.303
	c11.171-8.871,8.274-22.013,13.799-33.005c6.84-4.062,14.755-8.722,23.268-13.769c9.14,2.419,19.056,5.078,29.63,7.885
	c5.585-10.693,5.914-21.924,10.514-33.035c17.115-0.926,34.797-1.882,54.331-2.927c13.381-7.915,28.315-16.667,43.13-25.657
	c2.748-1.673,5.854-3.823,7.228-6.541c4.241-8.363,12.455-7.437,18.877-7.109c4.062,0.209,8.333,1.404,12.545,3.345
	c65.352,50.06,157.079,58.423,232.258,13.889C716.667,436.32,749.403,308.632,690.92,209.677z M323.686,416.069
	c-74.821,44.325-149.552,88.59-223.566,132.437c-4.988-0.866-9.409-1.643-12.425-2.151c-2.569-4.331-4.271-7.228-5.765-9.737
	c1.912-8.722,6.989-13.978,14.128-18.19c70.281-41.458,140.442-83.094,210.215-124.403c4.928,0.209,9.289,0.418,13.321,0.597
	c1.852,4.51,3.883,8.961,6.093,13.381C325,410.723,324.313,413.471,323.686,416.069z"/>
<path style="fill:#FF7007;" d="M743.041,288.441c0,0.03,0,0.03,0,0.06c7.437,21.117,11.708,43.757,11.708,67.443
	c0,112.156-90.801,203.076-202.808,203.076c-48.775,0-93.519-17.264-128.495-45.998c-0.149-0.03-0.299-0.03-0.448-0.06
	c4.66,17.174,11.44,33.811,20.37,49.403c1.434,3.435,2.748,6.9,4.391,10.275c3.196,6.571,9.438,11.649,14.128,17.533
	c1.673,2.091,2.838,4.57,4.749,7.706c-52.18,82.557-103.584,163.979-154.182,244.026c-3.793,37.784-7.437,74.164-11.171,111.589
	c8.662,10.872,21.864,6.242,33.035,5.436c16.189-1.135,31.242-8.124,45.759-15.532c8.632-4.391,17.145-9.05,25.358-13.411
	c1.882-22.162,4.63-43.459,9.767-63.949c11.44-2.449,21.505-4.63,31.422-6.75c5.914-12.993-2.628-23.387-2.718-35.693
	c4.271-6.75,9.17-14.486,14.456-22.879c9.229-2.001,19.295-4.182,29.958-6.481c0.09-12.067-4.689-22.192-5.645-34.2
	c14.815-8.632,30.137-17.533,47.043-27.36c8.303-13.142,17.652-27.748,26.762-42.503c1.702-2.748,3.465-6.063,3.465-9.14
	c-0.03-9.379,7.736-12.306,13.59-14.934c3.734-1.673,8.035-2.539,12.694-2.718c80.944,14.785,166.428-19.594,213.112-93.489
	C858.871,475.597,833.244,351.882,743.041,288.441z M362.694,853.584c-4.839,1.493-9.14,2.838-12.037,3.734
	c-4.241-2.688-7.079-4.48-9.558-6.063c-2.24-8.632-0.119-15.651,4.301-22.64c43.757-68.937,87.306-137.993,130.615-206.571
	c4.48-2.061,8.483-3.853,12.127-5.526c3.704,3.166,7.527,6.183,11.499,9.14c0.657,2.748,1.314,5.496,1.912,8.094
	C455.108,707.318,408.692,780.794,362.694,853.584z"/>
</svg>
