<?xml version="1.0" encoding="utf-8"?>
<!-- Generator: Adobe Illustrator 18.1.1, SVG Export Plug-In . SVG Version: 6.00 Build 0)  -->
<!DOCTYPE svg PUBLIC "-//W3C//DTD SVG 1.1//EN" "http://www.w3.org/Graphics/SVG/1.1/DTD/svg11.dtd">
<svg version="1.1" id="Layer_1" xmlns="http://www.w3.org/2000/svg" xmlns:xlink="http://www.w3.org/1999/xlink" x="0px" y="0px"
	 viewBox="353.6 4.3 295 293.1" enable-background="new 353.6 4.3 295 293.1" xml:space="preserve">
<path fill="#FF7007" d="M648.6,276.4l-20.3,21L510.1,183l20.3-21L648.6,276.4z"/>
<path fill="#FF7007" d="M555.6,105.4c0,55.9-45.2,101.1-101,101.1s-101-45.3-101-101.1c0-55.9,45.2-101.1,101-101.1
	C510.4,4.2,555.6,49.5,555.6,105.4z M454.6,21.3c-46.3,0-83.9,37.6-83.9,84s37.6,84,83.9,84s83.9-37.6,83.9-84
	C538.5,59,501,21.3,454.6,21.3z"/>
<path fill="#FF7007" d="M387.3,95.9H406c0,0-1.9-38.7,37.5-36.9V40C443.4,40,390.9,37.9,387.3,95.9z"/>
</svg>
