<?xml version="1.0" encoding="utf-8"?>
<!-- Generator: Adobe Illustrator 18.1.1, SVG Export Plug-In . SVG Version: 6.00 Build 0)  -->
<!DOCTYPE svg PUBLIC "-//W3C//DTD SVG 1.1//EN" "http://www.w3.org/Graphics/SVG/1.1/DTD/svg11.dtd">
<svg version="1.1" id="Layer_1" xmlns="http://www.w3.org/2000/svg" xmlns:xlink="http://www.w3.org/1999/xlink" x="0px" y="0px"
	 viewBox="414.8 2.2 171.1 296" enable-background="new 414.8 2.2 171.1 296" xml:space="preserve">
<path fill="#FF7007" d="M585.8,151.8c0,36.1,0.1,72.1,0,108.2c-0.1,28-9.8,37.9-37.1,38.1c-32.6,0.2-65.3,0.2-97.9,0
	c-25.3-0.2-35.8-10.3-35.9-35.1c-0.2-74.9-0.2-149.8,0-224.7c0.1-25.3,10.2-35.7,35-35.9c33.3-0.3,66.7-0.2,100,0
	c26,0.2,35.8,10.4,35.9,37C585.9,76.9,585.8,114.3,585.8,151.8z M440.2,42.6c0,66.8,0,131.5,0,196.1c41.1,0,80.9,0,119.7,0
	c0-66.3,0-131,0-196.1C519.5,42.6,480.7,42.6,440.2,42.6z M501.3,285.8c10.8-0.4,19.1-7.2,18.7-15.3c-0.3-8.6-10.3-15.3-21.8-14.1
	c-8.8,0.9-16.5,4-17.6,14.1C479.7,279.1,489.7,286.2,501.3,285.8z"/>
</svg>
