<?xml version="1.0" encoding="utf-8"?>
<!-- Generator: Adobe Illustrator 18.1.1, SVG Export Plug-In . SVG Version: 6.00 Build 0)  -->
<!DOCTYPE svg PUBLIC "-//W3C//DTD SVG 1.1//EN" "http://www.w3.org/Graphics/SVG/1.1/DTD/svg11.dtd">
<svg version="1.1" id="Layer_1" xmlns="http://www.w3.org/2000/svg" xmlns:xlink="http://www.w3.org/1999/xlink" x="0px" y="0px"
	 viewBox="351.8 3.5 295.8 293.7" enable-background="new 351.8 3.5 295.8 293.7" xml:space="preserve">
<path fill="#FF7007" d="M603.9,45.8c0,5.8-4.7,10.5-10.4,10.5c-5.8,0-10.4-4.7-10.4-10.5s4.7-10.5,10.4-10.5S603.9,40,603.9,45.8z"
	/>
<path fill="#FF7007" d="M639.5,99.9c0,5.8-4.7,10.5-10.4,10.5s-10.4-4.7-10.4-10.5s4.7-10.5,10.4-10.5
	C634.8,89.5,639.5,94.1,639.5,99.9z"/>
<path fill="#FF7007" d="M542,14c0,5.8-4.7,10.5-10.4,10.5c-5.8,0-10.4-4.7-10.4-10.5s4.7-10.5,10.4-10.5C537.3,3.6,542,8.3,542,14z"
	/>
<path fill="#FF7007" d="M480.8,14c0,5.8-4.7,10.5-10.4,10.5c-5.8,0-10.4-4.7-10.4-10.5s4.7-10.5,10.4-10.5
	C476.1,3.6,480.8,8.3,480.8,14z"/>
<path fill="#FF7007" d="M415.7,45.8c0,5.8-4.7,10.5-10.4,10.5c-5.8,0-10.4-4.7-10.4-10.5s4.7-10.5,10.4-10.5S415.7,40,415.7,45.8z"
	/>
<path fill="#FF7007" d="M380,99.9c0,5.8-4.7,10.5-10.4,10.5c-5.8,0-10.4-4.7-10.4-10.5s4.7-10.5,10.4-10.5
	C375.4,89.5,380,94.1,380,99.9z"/>
<path fill="#FF7007" d="M372.6,166.1c0,5.8-4.7,10.5-10.4,10.5c-5.8,0-10.4-4.7-10.4-10.5s4.7-10.5,10.4-10.5
	C367.9,155.7,372.6,160.3,372.6,166.1z"/>
<path fill="#FF7007" d="M647.6,166.1c0,5.8-4.7,10.5-10.4,10.5s-10.4-4.7-10.4-10.5s4.7-10.5,10.4-10.5S647.6,160.3,647.6,166.1z"/>
<path fill="#FF7007" d="M622.7,231.6c0,5.8-4.7,10.5-10.4,10.5c-5.8,0-10.4-4.7-10.4-10.5s4.7-10.5,10.4-10.5
	S622.7,225.8,622.7,231.6z"/>
<path fill="#FF7007" d="M397.8,231.6c0,5.8-4.7,10.5-10.4,10.5s-10.4-4.7-10.4-10.5s4.7-10.5,10.4-10.5S397.8,225.8,397.8,231.6z"/>
<path fill="#FF7007" d="M449,272.7c0,5.8-4.7,10.5-10.4,10.5c-5.8,0-10.4-4.7-10.4-10.5s4.7-10.5,10.4-10.5
	C444.4,262.3,449,267,449,272.7z"/>
<path fill="#FF7007" d="M575.7,272.7c0,5.8-4.7,10.5-10.4,10.5c-5.8,0-10.4-4.7-10.4-10.5s4.7-10.5,10.4-10.5
	C571,262.3,575.7,267,575.7,272.7z"/>
<path fill="#FF7007" d="M509.9,286.7c0,5.8-4.7,10.5-10.4,10.5c-5.8,0-10.4-4.7-10.4-10.5s4.7-10.5,10.4-10.5
	C505.3,276.2,509.9,280.9,509.9,286.7z"/>
<path fill="#FF7007" d="M362.1,155.7c19.2-22.7,5.2-45.5,5.2-45.5l6.6-19.7c32.3-5.9,23.9-37.2,23.9-37.2l14.9-14.6
	c33.5,5.1,47.1-24.5,47.1-24.5l20.7-2c17.8,17.5,40.7,0,40.7,0l20.3,4.6C555.4,44.9,589,36.4,589,36.4L601.8,52
	c-4.5,31.2,27.3,37.4,27.3,37.4l4.8,19.7c-16.1,32.9,7.4,47.4,7.4,47.4l-4.2,20c-30.4,14.7-16.9,48.4-16.9,48.4l-13.7,15.4
	c-30.8-3.5-32.1,27.6-32.1,27.6l-18,10.4c-24.5-14.6-46.6,8.2-46.6,8.2H489c-15.9-24.2-41.3-9.1-41.3-9.1l-18.6-9.3
	c-6.1-33.5-34.4-29.3-34.4-29.3L380,224.2c9.6-38.8-17.9-47.6-17.9-47.6V155.7L362.1,155.7z M408.5,164.9v58.7h11v-23.9h22V191h-22
	v-17.4h26v-8.7L408.5,164.9L408.5,164.9z M470.1,200.7c1.1,0,1.9,0.1,2.5,0.4c0.6,0.3,1.1,0.8,1.5,1.5l12.3,18.8
	c0.5,0.7,1,1.2,1.7,1.6c0.7,0.4,1.5,0.6,2.4,0.6h9.8L485.6,202c-1-1.5-2.2-2.6-3.6-3.4c2.1-0.6,3.9-1.5,5.5-2.6s3-2.3,4.1-3.8
	c1.1-1.4,1.9-3,2.5-4.8s0.9-3.6,0.9-5.6c0-2.5-0.4-4.8-1.3-6.8c-0.9-2.1-2.2-3.8-4-5.3s-4.2-2.6-7-3.5c-2.9-0.8-6.3-1.2-10.3-1.2
	h-17.9v58.7h10.9v-22.9L470.1,200.7L470.1,200.7L470.1,200.7z M465.4,173.4h7c4,0,7,0.8,9,2.4c2,1.6,2.9,3.9,2.9,6.9
	c0,1.5-0.2,2.9-0.7,4.1c-0.5,1.2-1.2,2.3-2.2,3.2s-2.2,1.6-3.8,2.1c-1.5,0.5-3.3,0.8-5.4,0.8h-6.8V173.4L465.4,173.4L465.4,173.4z
	 M507.3,164.9v58.7h37v-8.7h-26v-16.6h20.5v-8.4h-20.5v-16.3h26v-8.7H507.3L507.3,164.9z M553.8,164.9v58.7h37v-8.7h-26v-16.6h20.5
	v-8.4h-20.5v-16.3h26v-8.7H553.8L553.8,164.9z M476.5,88.2c0,0,3,4.7,8,1.2l11.5-9.9v55.7h-17.9v11.9h48.7v-11.8h-16.4V59.5h-11.2
	l-26.6,23L476.5,88.2z"/>
</svg>
