<?xml version="1.0" encoding="utf-8"?>
<!-- Generator: Adobe Illustrator 18.1.1, SVG Export Plug-In . SVG Version: 6.00 Build 0)  -->
<!DOCTYPE svg PUBLIC "-//W3C//DTD SVG 1.1//EN" "http://www.w3.org/Graphics/SVG/1.1/DTD/svg11.dtd">
<svg version="1.1" id="Layer_1" xmlns="http://www.w3.org/2000/svg" xmlns:xlink="http://www.w3.org/1999/xlink" x="0px" y="0px"
	 viewBox="358.2 6 291.3 291.3" enable-background="new 358.2 6 291.3 291.3" xml:space="preserve">
<path fill="none" stroke="#FF7007" stroke-width="19.5374" stroke-miterlimit="10" d="M395,122.9h145.2"/>
<path fill="none" stroke="#FF7007" stroke-width="19.5374" stroke-miterlimit="10" d="M395,158.4h145.2"/>
<path fill="none" stroke="#FF7007" stroke-width="19.5374" stroke-miterlimit="10" d="M395,194h145.2"/>
<path fill="none" stroke="#FF7007" stroke-width="19.5374" stroke-miterlimit="10" d="M368,15.8v271.8h200.7V60.7l-47.9-44.9
	C520.8,15.8,368,15.8,368,15.8z"/>
<path fill="none" stroke="#FF7007" stroke-width="19.5374" stroke-miterlimit="10" d="M511.8,15.8V69h56.9"/>
<path fill="#FFFFFF" stroke="#FF7007" stroke-width="19.5374" stroke-miterlimit="10" d="M639.8,210.1c0,40.3-32.7,73-73,73
	s-73-32.7-73-73s32.7-73,73-73S639.8,169.8,639.8,210.1z"/>
<path fill="#FF7007" d="M566.4,233.3L541,206.2l45.3-42.5l25.4,27.1L566.4,233.3z"/>
<path fill="#FF7007" d="M531.2,217.9l25,26.7l-25.6-1.1L531.2,217.9z"/>
</svg>
