<?xml version="1.0" encoding="utf-8"?>
<!-- Generator: Adobe Illustrator 18.1.1, SVG Export Plug-In . SVG Version: 6.00 Build 0)  -->
<!DOCTYPE svg PUBLIC "-//W3C//DTD SVG 1.1//EN" "http://www.w3.org/Graphics/SVG/1.1/DTD/svg11.dtd">
<svg version="1.1" id="Layer_1" xmlns="http://www.w3.org/2000/svg" xmlns:xlink="http://www.w3.org/1999/xlink" x="0px" y="0px"
	 viewBox="352.8 1.9 293.9 295.5" enable-background="new 352.8 1.9 293.9 295.5" xml:space="preserve">
<path fill="#FF7007" d="M630.4,151.1c-11.4-3-19.9,2.1-24.4,12.9c-2.2,5.4-3.3,11.4-5.2,17c-15.1,43.3-52.8,71.7-97,73.3
	c-45.4,1.7-85.5-24.6-101.2-66.4C386,144,399.3,96.3,436.4,67c32.9-26,80.5-27.8,118.5-3.7c9.1,2.8,15.3,9.3,18.6,17.1
	c9-1.6,18.4-2.4,27.1-4.8c-0.5-5.9-0.8-11.9-1.5-17.9c-0.4-3.2,0-6.3,0.8-9.3c-7.5-2.6-12.8-7.7-16.2-13.9c-2.3-2.6-4.2-5.6-5.5-8.9
	C544.4,6,509.8-1.9,472.7,5.6c-72.8,14.7-122.7,78-119.8,151.6c2.8,70.7,60.3,131.6,131.4,139.4c70.6,7.7,140.5-40.7,159.7-110.6
	c1.1-4.1,2.4-8.2,2.6-12.3C647.1,162.2,641.5,154,630.4,151.1z"/>
<path fill="#FF7007" d="M542.7,56.7c0,0,37.9,19.8,44.7,32.3l12.7-48.1c0,0-23.4-19.3-49-28.2l0.5,34.3L542.7,56.7z"/>
<path fill="#FF7007" d="M604.1,109.5L604.1,109.5c-12.3,0-22.2-10-22.2-22.2V24.1c0-12.3,10-22.2,22.2-22.2l0,0
	c12.3,0,22.2,10,22.2,22.2v63.1C626.4,99.6,616.4,109.5,604.1,109.5z"/>
<path fill="#FF7007" d="M626.4,87.3L626.4,87.3c0,12.3-10,22.2-22.2,22.2H541c-12.3,0-22.2-10-22.2-22.2l0,0
	c0-12.3,10-22.2,22.2-22.2h63.1C616.4,65,626.4,75,626.4,87.3z"/>
</svg>
