<?xml version="1.0" encoding="utf-8"?>
<!-- Generator: Adobe Illustrator 18.1.1, SVG Export Plug-In . SVG Version: 6.00 Build 0)  -->
<!DOCTYPE svg PUBLIC "-//W3C//DTD SVG 1.1//EN" "http://www.w3.org/Graphics/SVG/1.1/DTD/svg11.dtd">
<svg version="1.1" id="Layer_1" xmlns="http://www.w3.org/2000/svg" xmlns:xlink="http://www.w3.org/1999/xlink" x="0px" y="0px"
	 viewBox="399.9 4.5 205.2 293.4" enable-background="new 399.9 4.5 205.2 293.4" xml:space="preserve">
<path fill="#FF7007" d="M604.9,297.9c-20.9-15.5-37.9-28.1-54.6-40.4c6.2-18.4,11.8-35.2,17.4-52.1c23.7-2.7,36.2,6.7,37,29.1
	C605.4,253.8,604.9,273.2,604.9,297.9z"/>
<path fill="#FF7007" d="M436.9,204.6c5.5,16.5,11.1,33.4,17.6,53.1c-16.1,11.9-33.5,24.7-54.2,40c0-25.6-1.1-46.9,0.3-68.1
	C401.8,211.8,414,204.2,436.9,204.6z"/>
<path fill="#FF7007" d="M526.3,101.9c-9,1.5-18,3.2-27.1,4.4c-15.4,2-33.8,2.9-47.2-6.1c-11.2,51.6-6.3,108,11,144.1
	c5.8,12.1,13.7,22.6,28.7,29.3v-81.8c0-14.2,22-14.2,22,0v81.6c14.4-5.8,23.6-16.7,28.5-30.1c6.2-16.8,12-34.3,14.1-51.9
	c3.9-32.5,3.5-64.3-3.7-94.7C544,98.9,535.1,100.4,526.3,101.9z"/>
<path fill="#FF7007" d="M470.2,102.5c-6.3-0.6-12.5-1.7-18.5-3.4c-4.4,21.2-6.6,46.4-5,76.1l64.7-55.1l-27.5-16.6
	C479.3,103.3,474.7,103,470.2,102.5z"/>
<path fill="#FF7007" d="M539.9,99.1l4.8,14.5l13.7,53.6c0,0,2.5-31.6-5.4-69.3C548.6,98.5,544.2,98.8,539.9,99.1z"/>
<path fill="#FF7007" d="M502.3,4.5c44.6,36.8,52.8,104.6,52.8,104.6H449.8C461.5,34.9,502.3,4.5,502.3,4.5z M472.6,91.8H531
	c0,0,2.8-42.3-28.6-61.3C502.4,30.5,473.2,41.5,472.6,91.8z"/>
</svg>
