<?xml version="1.0" encoding="iso-8859-1"?>
<!-- Generator: Adobe Illustrator 17.1.0, SVG Export Plug-In . SVG Version: 6.00 Build 0)  -->
<!DOCTYPE svg PUBLIC "-//W3C//DTD SVG 1.1//EN" "http://www.w3.org/Graphics/SVG/1.1/DTD/svg11.dtd">
<svg version="1.1" id="Layer_1" xmlns="http://www.w3.org/2000/svg" xmlns:xlink="http://www.w3.org/1999/xlink" x="0px" y="0px"
	 viewBox="55.357 0 889.286 1000" style="enable-background:new 55.357 0 889.286 1000;" xml:space="preserve">
<path style="fill:#FF7007;" d="M897.411,240.268H102.589c-26.071,0-47.232-21.131-47.232-47.173V47.173
	C55.357,21.131,76.518,0,102.589,0h794.821c26.071,0,47.232,21.131,47.232,47.173v145.923
	C944.643,219.137,923.482,240.268,897.411,240.268z M828.125,86.786c-18.423,0-33.393,14.94-33.393,33.333
	c0,18.423,14.94,33.333,33.393,33.333s33.393-14.911,33.393-33.333C861.518,101.726,846.577,86.786,828.125,86.786z M737.44,86.786
	c-18.423,0-33.393,14.94-33.393,33.333c0,18.423,14.941,33.333,33.393,33.333s33.393-14.911,33.393-33.333
	C770.804,101.726,755.863,86.786,737.44,86.786z M517.649,138.988h154.94V101.25h-154.94L517.649,138.988L517.649,138.988z"/>
<path style="fill:#FF7007;" d="M897.411,511.935H102.589c-26.071,0-47.232-21.101-47.232-47.143V318.869
	c0-26.042,21.161-47.173,47.232-47.173h794.821c26.071,0,47.232,21.131,47.232,47.173v145.923
	C944.643,490.833,923.482,511.935,897.411,511.935z M828.125,358.482c-18.423,0-33.393,14.911-33.393,33.333
	c0,18.393,14.94,33.333,33.393,33.333s33.393-14.94,33.393-33.333S846.577,358.482,828.125,358.482z M737.44,358.482
	c-18.423,0-33.393,14.911-33.393,33.333c0,18.393,14.941,33.333,33.393,33.333s33.393-14.94,33.393-33.333
	C770.804,373.423,755.863,358.482,737.44,358.482z M517.649,410.685h154.94v-37.738h-154.94L517.649,410.685L517.649,410.685z"/>
<path style="fill:#FF7007;" d="M897.411,783.661H102.589c-26.071,0-47.232-21.131-47.232-47.173V590.565
	c0-26.042,21.161-47.173,47.232-47.173h794.821c26.071,0,47.232,21.131,47.232,47.173v145.923
	C944.643,762.53,923.482,783.661,897.411,783.661z M828.125,630.179c-18.423,0-33.393,14.94-33.393,33.333
	c0,18.423,14.94,33.333,33.393,33.333s33.393-14.911,33.393-33.333C861.518,645.119,846.577,630.179,828.125,630.179z
	 M737.44,630.179c-18.423,0-33.393,14.94-33.393,33.333c0,18.423,14.941,33.333,33.393,33.333s33.393-14.911,33.393-33.333
	C770.804,645.119,755.863,630.179,737.44,630.179z M517.649,682.381h154.94v-37.738h-154.94L517.649,682.381L517.649,682.381z"/>
<path style="fill:#FF7007;" d="M523.929,862.887v-49.048h-47.857v49.048h-44.702V1000h137.292V862.887H523.929L523.929,862.887z"/>
<path style="fill:#FF7007;" d="M841.994,959.762H596.369v-65.417h245.625V959.762z"/>
<path style="fill:#FF7007;" d="M403.631,959.762H158.006v-65.417h245.625V959.762z"/>
</svg>
