<?xml version="1.0" encoding="utf-8"?>
<!-- Generator: Adobe Illustrator 18.1.1, SVG Export Plug-In . SVG Version: 6.00 Build 0)  -->
<!DOCTYPE svg PUBLIC "-//W3C//DTD SVG 1.1//EN" "http://www.w3.org/Graphics/SVG/1.1/DTD/svg11.dtd">
<svg version="1.1" id="Layer_1" xmlns="http://www.w3.org/2000/svg" xmlns:xlink="http://www.w3.org/1999/xlink" x="0px" y="0px"
	 viewBox="369.5 2.6 264 295.4" enable-background="new 369.5 2.6 264 295.4" xml:space="preserve">
<path fill="#FF7007" d="M593.3,167.7c-1.9-5.2-3.5-10.5-4.6-16c-0.5,0-1.1,0-1.6,0c-56.8,0-114.9,1.9-172.4-0.6
	c-1.2,8.3-3.7,16.3-7.2,23.8c19.6,32.1,49.4,53.4,80.5,73.2c5.7,3.6,11.1,8.2,18.9,3.2c32.8-21.2,65.7-42.2,85.5-77.2
	C592.7,172.1,593,169.9,593.3,167.7z"/>
<path fill="#FF7007" d="M606.2,188.7h13.2c7.8,0,14.1-6.3,14.1-14.1v-52.4c0-7.8-6.3-14.1-14.1-14.1h-13.2
	c-7.8,0-14.1,6.3-14.1,14.1v52.4C592.1,182.4,598.4,188.7,606.2,188.7z"/>
<path fill="#FF7007" d="M549.1,278.7l-2.1-8c-1.3-4.7-6.1-7.5-10.8-6.3l-31,8.2c-4.7,1.3-7.6,6.1-6.3,10.8l2.1,8
	c1.3,4.7,6.1,7.5,10.8,6.3l31-8.2C547.6,288.2,550.4,283.4,549.1,278.7z"/>
<path fill="#FF7007" d="M383.6,188.7h13.2c7.8,0,14.1-6.3,14.1-14.1v-52.4c0-7.8-6.3-14.1-14.1-14.1h-13.2
	c-7.8,0-14.1,6.3-14.1,14.1v52.4C369.4,182.4,375.8,188.7,383.6,188.7z"/>
<path fill="#FF7007" d="M408.7,114.8c0,0-0.1-58.6,60.3-71.4c0,0,29.1,0.4,34.4,22"/>
<path fill="#FF7007" d="M416.2,102.4L401.7,127l-2.2,23.3l68.8,20.3l133.5-20.3l-5.3-35.6c0,0,0.1-58.6-59.8-71.4
	c0,0-28.9,0.4-34.1,22"/>
<path fill="#FF7007" d="M537.4,59.7l-41.9,8.5l-28.7-8.5l-26,8.5"/>
<path fill="#FF7007" d="M517.1,48.2c0,0,22.9-15.3,48.9,7.8l-14.5,12.3L517.1,48.2z"/>
<path fill="#FF7007" d="M480,45.1c0,0-18.1-8.3-42.5,12.2l3.4,13L480,45.1z"/>
<path fill="#FF7007" d="M543.1,269c0,0,61.7-24.4,61.1-89.8l15.3,4.1c0,0,2.4,72.5-72,97.8L543.1,269z"/>
<path fill="#FF7007" d="M590.5,254.7c0,0-19.5,19.5-44.2,28.3l-9-5.3v-8.9"/>
<path fill="#FF7007" d="M552.9,47.2c0,0,18.8,8.6,29.6,25.5L567.7,94l-39-25.8l8.7-17.9L552.9,47.2z"/>
<path fill="none" stroke="#FF7007" stroke-width="16" stroke-miterlimit="10" d="M612.8,111.7c0,55.8-49.3,101.1-110.2,101.1
	s-110.2-45.3-110.2-101.1S441.7,10.6,502.6,10.6C563.4,10.6,612.8,55.8,612.8,111.7z"/>
<path fill="#FF7007" d="M601.7,167.1h-193V142h193V167.1L601.7,167.1z"/>
</svg>
