<?xml version="1.0" encoding="utf-8"?>
<!-- Generator: Adobe Illustrator 18.1.1, SVG Export Plug-In . SVG Version: 6.00 Build 0)  -->
<!DOCTYPE svg PUBLIC "-//W3C//DTD SVG 1.1//EN" "http://www.w3.org/Graphics/SVG/1.1/DTD/svg11.dtd">
<svg version="1.1" id="Layer_1" xmlns="http://www.w3.org/2000/svg" xmlns:xlink="http://www.w3.org/1999/xlink" x="0px" y="0px"
	 viewBox="351.5 1.8 296.9 295.5" enable-background="new 351.5 1.8 296.9 295.5" xml:space="preserve">
<path fill="#FF7007" d="M465.9,150c5.6-5.5,11.3-10.9,17.4-16c6.5-5.4,13.1-10.7,19.6-16.1c-14.6-14.3-29.1-28.6-43.6-42.9
	c-1.6-60-26.4-83.4-74.1-67.4c13.2,14.9,25.9,29.2,46,52c-8.2,7.5-14.6,13.4-21.8,20c-21.9-19.1-36.4-31.8-51.5-44.9
	c-15.3,48.9,6.8,72.6,68,75.3C439.3,123.3,452.6,136.7,465.9,150z"/>
<path fill="#FF7007" d="M535.7,150c-5.6,5.5-11.3,10.9-17.4,16c-6.5,5.4-13.1,10.7-19.6,16.1c14.6,14.3,29.1,28.6,43.6,42.9
	c1.6,60,26.4,83.4,74.1,67.4c-13.2-14.9-25.9-29.2-46-52c8.2-7.5,14.6-13.4,21.8-20c21.9,19.1,36.4,31.8,51.5,44.9
	c15.3-48.9-6.8-72.6-68-75.3C562.3,176.7,549,163.4,535.7,150z"/>
<path fill="#FF7007" d="M447.4,155c14.4,14.7,24.6,25.1,38.6,39.3c-31.3,30.8-61,61.1-91.9,90.1c-11.5,10.8-26.1,9.3-35.9-3
	c-10.6-13.3-8.2-27.6,3.7-39.8C389.4,213.7,417,185.9,447.4,155z"/>
<path fill="#FF7007" d="M451.3,135.3l57.2,56.6l49.1-19.9l-79.9-79L451.3,135.3z"/>
<path fill="#FF7007" d="M618.7,1.8l20.5,20.4l-29.3,65.1h-37.4L556,70.9l-1-38.4L618.7,1.8z"/>
<path fill="#FF7007" d="M534.3,127.1l-20.2-20.2l44.3-44.2l20.2,20.2L534.3,127.1z"/>
</svg>
