<?xml version="1.0" encoding="utf-8"?>
<!-- Generator: Adobe Illustrator 18.1.1, SVG Export Plug-In . SVG Version: 6.00 Build 0)  -->
<!DOCTYPE svg PUBLIC "-//W3C//DTD SVG 1.1//EN" "http://www.w3.org/Graphics/SVG/1.1/DTD/svg11.dtd">
<svg version="1.1" id="Layer_1" xmlns="http://www.w3.org/2000/svg" xmlns:xlink="http://www.w3.org/1999/xlink" x="0px" y="0px"
	 viewBox="350 77.2 300 145.5" enable-background="new 350 77.2 300 145.5" xml:space="preserve">
<path fill="#FF7007" d="M486.2,158.4c-1.1-4.7-2.3-9.4-2.4-14.1c-9.8,11.4-19.3,23-30.2,33.2c-7.7,7.2-18.6,12.8-28.9,15.1
	c-17.3,3.9-30-5.7-38.7-20.3c-9.6-16-9.3-31.9,1.7-47c10.4-14.2,24.5-21,42.2-18.2c13.2,2.1,23.5,9.4,32.1,19.6
	c8.4,10,15.5,11.1,22.8,4.8c7.2-6.2,7.3-13.8-0.7-23.6c-4.6-5.6-9.8-10.8-15.5-15.2c-25-19.5-60.2-20.6-86.1-3.1
	c-26.7,18-38.6,50.6-29.5,80.6c15.2,50.2,69.3,68.4,111.1,36.9c9.7-7.3,18.4-16.2,26.6-25.3c0.5-0.6,1-1.2,1.5-1.7v-15.8
	C489.4,163.9,487,162.1,486.2,158.4z"/>
<path fill="#FF7007" d="M647,129.8c-15.2-50.2-69.3-68.4-111.1-36.9c-9.7,7.3-18.4,16.2-26.6,25.3c-0.9,1-1.8,2.1-2.7,3.1V148
	c1.4-1.9,3.5-3.2,6.6-3.2c4.1,0,6.7,2.4,7.7,5.4c8.2-9.6,16.3-19.1,25.5-27.7c7.7-7.2,18.6-12.8,28.9-15.1
	c17.3-3.9,30,5.7,38.7,20.3c9.6,16,9.3,31.9-1.7,47c-10.4,14.2-24.5,21-42.2,18.2c-13.2-2.1-23.5-9.4-32.1-19.6
	c-8.4-10-15.5-11.1-22.8-4.8c-7.2,6.2-7.3,13.8,0.7,23.6c4.6,5.6,9.8,10.8,15.5,15.2c25,19.5,60.2,20.6,86.1,3.1
	C644.2,192.4,656.1,159.8,647,129.8z"/>
<path fill="#FF7007" d="M484.7,143.3l40.8-41.8l-2.7,46.4L486.9,186l-8.9-34.9L484.7,143.3z"/>
</svg>
