<?xml version="1.0" encoding="utf-8"?>
<!-- Generator: Adobe Illustrator 18.1.1, SVG Export Plug-In . SVG Version: 6.00 Build 0)  -->
<!DOCTYPE svg PUBLIC "-//W3C//DTD SVG 1.1//EN" "http://www.w3.org/Graphics/SVG/1.1/DTD/svg11.dtd">
<svg version="1.1" id="Layer_1" xmlns="http://www.w3.org/2000/svg" xmlns:xlink="http://www.w3.org/1999/xlink" x="0px" y="0px"
	 viewBox="351.5 6.6 296.4 283.4" enable-background="new 351.5 6.6 296.4 283.4" xml:space="preserve">
<path fill="#FF7007" d="M543.2,244.3c-29.8,0-56.6,0-86.1,0c0-39.2,0-78.4,0-119.6c-18.3,0-34,0-55.4,0C436,83.6,467,46.4,500.2,6.6
	c32.3,38.4,63.5,75.5,97.4,115.8c-18.8,0-34.1,0-53.4,0C542.7,163.6,544.2,202.8,543.2,244.3z"/>
<path fill="#FF7007" d="M351.5,289.9c0-30,0-58.5,0-88.8c8.8,0,17.4,0,28.3,0c0,18.1,0,36.3,0,56.3c79.1,0,156.1,0,235.5,0
	c0-18.5,0-36.6,0-56.4c11.9,0,21.5,0,32.6,0c0,28.9,0,58,0,89C549.9,289.9,451.9,289.9,351.5,289.9z"/>
<path fill="#FF7007" d="M545.3,244.3H454V119.2h91.3V244.3z"/>
</svg>
