<?xml version="1.0" encoding="utf-8"?>
<!-- Generator: Adobe Illustrator 18.1.1, SVG Export Plug-In . SVG Version: 6.00 Build 0)  -->
<!DOCTYPE svg PUBLIC "-//W3C//DTD SVG 1.1//EN" "http://www.w3.org/Graphics/SVG/1.1/DTD/svg11.dtd">
<svg version="1.1" id="Layer_1" xmlns="http://www.w3.org/2000/svg" xmlns:xlink="http://www.w3.org/1999/xlink" x="0px" y="0px"
	 viewBox="210.2 12.2 323.1 90" enable-background="new 210.2 12.2 323.1 90" xml:space="preserve">
<g>
	<path fill="#1499CD" d="M340.5,14.9c1.3-0.2,2.7-0.4,4.1-0.5c1.4-0.1,2.8-0.1,4.1-0.1c1.3,0,2.7,0,4.1,0.1c1.4,0.1,2.8,0.2,4.2,0.5
		v32.3c0.6-0.7,1.3-1.5,2.2-2.5s2-1.9,3.3-2.8c1.3-0.9,2.9-1.7,4.8-2.3c1.9-0.6,4-1,6.5-1c6.8,0,11.9,1.9,15.4,5.6s5.2,9.7,5.2,17.8
		v38.9c-1.4,0.2-2.8,0.4-4.2,0.5c-1.4,0.1-2.8,0.1-4.1,0.1c-1.3,0-2.7,0-4.1-0.1c-1.4-0.1-2.8-0.2-4.2-0.5V66.4c0-4.2-0.7-7.5-2-9.8
		s-3.6-3.4-6.9-3.4c-1.3,0-2.7,0.2-4.1,0.6c-1.4,0.4-2.7,1.1-3.8,2.3c-1.1,1.1-2.1,2.7-2.8,4.8c-0.8,2-1.1,4.7-1.1,8v31.9
		c-1.4,0.2-2.8,0.4-4.2,0.5c-1.4,0.1-2.8,0.1-4.1,0.1c-1.3,0-2.7,0-4.1-0.1c-1.4-0.1-2.8-0.2-4.2-0.5L340.5,14.9L340.5,14.9z"/>
	<path fill="#1499CD" d="M408.6,40c2.8-0.5,5.6-0.7,8.3-0.7c2.8,0,5.5,0.2,8.3,0.7v32.2c0,3.2,0.3,5.8,0.8,7.9s1.3,3.7,2.4,4.9
		c1.1,1.2,2.4,2.1,3.9,2.6c1.6,0.5,3.4,0.8,5.5,0.8c2.9,0,5.3-0.3,7.3-0.8V40c2.8-0.5,5.5-0.7,8.2-0.7c2.8,0,5.5,0.2,8.3,0.7v58.4
		c-2.5,0.9-5.8,1.7-9.9,2.5c-4.1,0.8-8.4,1.2-12.9,1.2c-4,0-7.8-0.3-11.5-1c-3.7-0.6-6.9-2-9.7-4c-2.8-2-5-5-6.6-8.9
		c-1.6-3.9-2.5-9.1-2.5-15.6L408.6,40L408.6,40z"/>
	<path fill="#1499CD" d="M476.7,14.9c2.8-0.5,5.5-0.7,8.2-0.7c2.8,0,5.5,0.2,8.3,0.7v31c1.2-2.1,3.1-3.9,5.9-5.2
		c2.8-1.4,5.9-2.1,9.4-2.1s6.8,0.6,9.8,1.9c3,1.2,5.6,3.2,7.8,5.7c2.2,2.6,3.9,5.7,5.2,9.6c1.2,3.8,1.9,8.4,1.9,13.6
		c0,5.1-0.8,9.7-2.4,13.7c-1.6,4-3.8,7.5-6.8,10.3c-3,2.8-6.6,5-10.9,6.5c-4.3,1.5-9.2,2.3-14.6,2.3c-1.7,0-3.5-0.1-5.5-0.2
		c-1.9-0.2-3.9-0.4-5.8-0.7c-2-0.3-3.8-0.6-5.6-1.1c-1.8-0.4-3.4-0.9-4.9-1.5V14.9z M493.3,87.6c1,0.3,1.9,0.5,3,0.6
		c1.1,0.1,2.1,0.1,3.2,0.1c5.1,0,9.1-1.5,12-4.5c2.9-3,4.3-7.7,4.3-14c0-5.6-0.9-9.9-2.7-12.9c-1.8-3-4.9-4.4-9.2-4.4
		c-3.2,0-5.7,1.1-7.7,3.1c-2,2.1-3,5.4-3,9.8L493.3,87.6L493.3,87.6L493.3,87.6z"/>
</g>
<linearGradient id="SVGID_2_" gradientUnits="userSpaceOnUse" x1="300.9" y1="-88" x2="300.9" y2="30.3" gradientTransform="matrix(0.3283 0 0 0.3283 207.6248 77.5083)">
	<stop  offset="0" style="stop-color:#F89E1E"/>
	<stop  offset="1" style="stop-color:#DF6226"/>
</linearGradient>
<path fill="url(#SVGID_2_)" d="M287,68.1c0-10.7,8.7-19.4,19.4-19.4c10.7,0,19.4,8.7,19.4,19.4c0,10.7-8.7,19.4-19.4,19.4
	C295.7,87.5,287,78.8,287,68.1z"/>
<defs>
	<filter id="Adobe_OpacityMaskFilter" filterUnits="userSpaceOnUse" x="287" y="48.6" width="31.7" height="24.7">
		<feColorMatrix  type="matrix" values="1 0 0 0 0  0 1 0 0 0  0 0 1 0 0  0 0 0 1 0"/>
	</filter>
</defs>
<mask maskUnits="userSpaceOnUse" x="287" y="48.6" width="31.7" height="24.7" id="SVGID_11_">
	<g filter="url(#Adobe_OpacityMaskFilter)">
		
			<linearGradient id="SVGID_3_" gradientUnits="userSpaceOnUse" x1="291.75" y1="-90.2" x2="291.75" y2="-11" gradientTransform="matrix(0.3283 0 0 0.3283 207.6248 77.5083)">
			<stop  offset="0" style="stop-color:#FFFFFF"/>
			<stop  offset="8.962709e-002" style="stop-color:#FFFFFF;stop-opacity:0.9104"/>
			<stop  offset="1" style="stop-color:#FFFFFF;stop-opacity:0"/>
		</linearGradient>
		<rect x="280" y="47.9" fill="url(#SVGID_3_)" width="46.9" height="26"/>
	</g>
</mask>
<linearGradient id="SVGID_5_" gradientUnits="userSpaceOnUse" x1="289.85" y1="-88.1" x2="289.85" y2="-12.8" gradientTransform="matrix(0.3283 0 0 0.3283 207.6248 77.5083)">
	<stop  offset="0" style="stop-color:#FFFFFF"/>
	<stop  offset="8.962709e-002" style="stop-color:#FFFFFF;stop-opacity:0.9104"/>
	<stop  offset="1" style="stop-color:#FFFFFF;stop-opacity:0"/>
</linearGradient>
<path mask="url(#SVGID_11_)" fill="url(#SVGID_5_)" d="M318.6,54.4c0-0.5,0-1.1-0.1-1.5c-3.3-2.7-7.6-4.3-12.1-4.3
	c-10.7,0-19.4,8.7-19.4,19.4c0,0.6,0,1.2,0.1,1.7c3.3,2.2,7.3,3.5,11.6,3.5C309.7,73.3,318.6,64.9,318.6,54.4z"/>
<g>
	
		<linearGradient id="SVGID_6_" gradientUnits="userSpaceOnUse" x1="300.9" y1="-89.6" x2="300.9" y2="31.9" gradientTransform="matrix(0.3283 0 0 0.3283 207.6248 77.5083)">
		<stop  offset="0" style="stop-color:#D0922A"/>
		<stop  offset="1" style="stop-color:#DF6026"/>
	</linearGradient>
	<path fill="url(#SVGID_6_)" d="M306.4,88c-11,0-20-9-20-19.9c0-11,9-20,20-20s20,9,20,20S317.4,88,306.4,88z M306.4,49.1
		c-10.4,0-18.9,8.5-18.9,18.9S296,87,306.4,87c10.4,0,18.9-8.5,18.9-18.9C325.3,57.6,316.9,49.1,306.4,49.1z"/>
</g>
<path fill="#FF7007" d="M265.8,36.2c0-5.4,4.3-9.7,9.7-9.7c5.4,0,9.7,4.3,9.7,9.7c0,5.4-4.3,9.7-9.7,9.7
	C270.2,45.9,265.8,41.6,265.8,36.2z"/>
<g>
	<path fill="#1499CD" d="M264.4,97.7c-23.6,0-42.8-19.2-42.8-42.8s19.2-42.8,42.8-42.8c23.6,0,42.8,19.2,42.8,42.8
		C307.2,78.5,288,97.7,264.4,97.7z M264.4,16.5c-21.2,0-38.5,17.2-38.5,38.5c0,21.2,17.2,38.5,38.5,38.5s38.5-17.2,38.5-38.5
		C302.9,33.8,285.6,16.5,264.4,16.5z"/>
</g>
<g>
	<path fill="#FF7007" d="M210.7,71.7c0-16.3,13.2-29.6,29.6-29.6s29.6,13.2,29.6,29.6s-13.2,29.5-29.6,29.5S210.7,88,210.7,71.7z"/>
	<defs>
		<filter id="Adobe_OpacityMaskFilter_1_" filterUnits="userSpaceOnUse" x="222.1" y="42.1" width="47.6" height="39.6">
			<feColorMatrix  type="matrix" values="1 0 0 0 0  0 1 0 0 0  0 0 1 0 0  0 0 0 1 0"/>
		</filter>
	</defs>
	<mask maskUnits="userSpaceOnUse" x="222.1" y="42.1" width="47.6" height="39.6" id="SVGID_4_">
		<g filter="url(#Adobe_OpacityMaskFilter_1_)">
			
				<linearGradient id="SVGID_7_" gradientUnits="userSpaceOnUse" x1="-478.8754" y1="47.6264" x2="-478.8754" y2="361.4671" gradientTransform="matrix(0.1286 0 0 0.1286 307.5007 35.2006)">
				<stop  offset="0" style="stop-color:#FFFFFF"/>
				<stop  offset="1" style="stop-color:#231F20"/>
			</linearGradient>
			<rect x="207" y="41.3" fill="url(#SVGID_7_)" width="77.9" height="40.4"/>
		</g>
	</mask>
	<path opacity="0.75" mask="url(#SVGID_4_)" fill="#FF7007" enable-background="new    " d="M240.2,42.1c-6.8,0-13,2.3-18,6.1
		c-0.1,1-0.2,2-0.2,3.1c0,16.7,15.1,30.3,33.8,30.3c4.6,0,8.9-0.8,12.8-2.3c0.7-2.5,1-5,1-7.7C269.8,55.4,256.5,42.1,240.2,42.1z"/>
	<g>
		<path fill="#FF7007" d="M240.2,101.8c-16.6,0-30.1-13.5-30.1-30.1c0-16.6,13.5-30.1,30.1-30.1s30.1,13.5,30.1,30.1
			C270.3,88.3,256.8,101.8,240.2,101.8z M240.2,42.7c-16,0-29.1,13-29.1,29.1c0,16,13,29,29,29s29-13,29-29
			C269.3,55.7,256.3,42.7,240.2,42.7z"/>
	</g>
</g>
<path fill="#FF7007" d="M287.1,67.8c0-10.8,8.7-19.5,19.5-19.5c10.8,0,19.5,8.7,19.5,19.5c0,10.8-8.7,19.5-19.5,19.5
	C295.9,87.3,287.1,78.5,287.1,67.8z"/>
<defs>
	<filter id="Adobe_OpacityMaskFilter_2_" filterUnits="userSpaceOnUse" x="287.1" y="48.3" width="31.8" height="24.9">
		<feColorMatrix  type="matrix" values="1 0 0 0 0  0 1 0 0 0  0 0 1 0 0  0 0 0 1 0"/>
	</filter>
</defs>
<mask maskUnits="userSpaceOnUse" x="287.1" y="48.3" width="31.8" height="24.9" id="SVGID_1_">
	<g filter="url(#Adobe_OpacityMaskFilter_2_)">
		
			<linearGradient id="SVGID_8_" gradientUnits="userSpaceOnUse" x1="-30.4587" y1="95.8899" x2="-30.4587" y2="298.9032" gradientTransform="matrix(0.1286 0 0 0.1286 307.5007 35.2006)">
			<stop  offset="0" style="stop-color:#FFFFFF"/>
			<stop  offset="8.962709e-002" style="stop-color:#FFFFFF;stop-opacity:0.9104"/>
			<stop  offset="1" style="stop-color:#FFFFFF;stop-opacity:0"/>
		</linearGradient>
		<rect x="280" y="47.5" fill="url(#SVGID_8_)" width="47.1" height="26.1"/>
	</g>
</mask>
<path mask="url(#SVGID_1_)" fill="#FF7007" d="M318.9,54.1c0-0.5,0-1-0.1-1.5c-3.3-2.7-7.6-4.3-12.2-4.3c-10.8,0-19.5,8.7-19.5,19.5
	c0,0.6,0,1.2,0.1,1.8c3.3,2.3,7.3,3.5,11.7,3.5C309.9,73.1,318.9,64.6,318.9,54.1z"/>
<g>
	<path fill="#FF7007" d="M306.6,87.8c-11,0-20-9-20-20s9-20,20-20s20,9,20,20S317.7,87.8,306.6,87.8z M306.6,48.8
		c-10.5,0-19,8.5-19,19c0,10.5,8.5,19,19,19s19-8.5,19-19S317.1,48.8,306.6,48.8z"/>
</g>
</svg>
