<?xml version="1.0" encoding="utf-8"?>
<!-- Generator: Adobe Illustrator 18.1.1, SVG Export Plug-In . SVG Version: 6.00 Build 0)  -->
<!DOCTYPE svg PUBLIC "-//W3C//DTD SVG 1.1//EN" "http://www.w3.org/Graphics/SVG/1.1/DTD/svg11.dtd">
<svg version="1.1" id="Layer_1" xmlns="http://www.w3.org/2000/svg" xmlns:xlink="http://www.w3.org/1999/xlink" x="0px" y="0px"
	 viewBox="638.4 117.5 308.8 110.5" enable-background="new 638.4 117.5 308.8 110.5" xml:space="preserve">
<g>
	<path fill="#1499CD" d="M758.5,118.3c1.4-0.4,2.9-0.4,3.9-0.4c1.4,0,2.9,0,3.9,0c1.4,0,2.9,0,3.9,0c1.4,0,2.9,0.4,4.3,0.4v31.8
		c0.4-0.7,1.4-1.4,2.1-2.5c0.7-1.1,1.8-1.8,3.2-2.9c1.4-0.7,2.9-1.4,4.6-2.1c1.8-0.7,3.9-1.1,6.4-1.1c6.8,0,11.8,1.8,15,5.7
		c3.2,3.9,5,9.3,5,17.5v37.9c-1.4,0.4-2.9,0.4-4.3,0.4c-1.4,0-2.9,0-3.9,0c-1.4,0-2.9,0-3.9,0c-1.4,0-2.9-0.4-4.3-0.4V169
		c0-4.3-0.7-7.1-1.8-9.7c-1.4-2.1-3.6-3.2-6.8-3.2c-1.4,0-2.9,0.4-3.9,0.4c-1.4,0.4-2.9,1.1-3.6,2.1c-1.1,1.1-2.1,2.9-2.9,4.6
		c-0.7,2.1-1.1,4.6-1.1,7.9v31.5c-1.4,0.4-2.9,0.4-4.3,0.4c-1.4,0-2.9,0-3.9,0c-1.4,0-2.9,0-3.9,0c-1.4,0-2.9-0.4-3.9-0.4
		L758.5,118.3L758.5,118.3z"/>
	<path fill="#1499CD" d="M825.4,142.9c2.9-0.4,5.4-0.7,8.2-0.7c2.9,0,5.4,0.4,8.2,0.7v31.5c0,3.2,0.4,5.7,0.7,7.9
		c0.7,2.1,1.4,3.6,2.5,4.6s2.5,2.1,3.9,2.5c1.4,0.4,3.2,0.7,5.4,0.7c2.9,0,5.4-0.4,7.1-0.7v-46.8c2.9-0.4,5.4-0.7,8.2-0.7
		s5.4,0.4,8.2,0.7v57.2c-2.5,0.7-5.7,1.8-9.7,2.5c-3.9,0.7-8.2,1.1-12.5,1.1c-3.9,0-7.9-0.4-11.4-1.1s-6.8-1.8-9.7-3.9
		c-2.9-2.1-5-5-6.4-8.9c-1.8-3.9-2.5-8.9-2.5-15.4L825.4,142.9L825.4,142.9z"/>
	<path fill="#1499CD" d="M891.9,118.3c2.9-0.4,5.4-0.7,8.2-0.7c2.9,0,5.4,0.4,8.2,0.7v30.4c1.1-2.1,2.9-3.6,5.7-5
		c2.9-1.4,5.7-2.1,9.3-2.1s6.8,0.7,9.7,1.8c2.9,1.1,5.4,3.2,7.5,5.7c2.1,2.5,3.9,5.7,5,9.3c1.1,3.9,1.8,8.2,1.8,13.2
		c0,5-0.7,9.3-2.5,13.6c-1.4,3.9-3.6,7.1-6.8,10c-2.9,2.9-6.4,5-10.7,6.4c-4.3,1.4-8.9,2.1-14.3,2.1c-1.8,0-3.6,0-5.4-0.4
		c-1.8-0.4-3.6-0.4-5.7-0.7c-1.8-0.4-3.6-0.7-5.7-1.1c-1.8-0.4-3.2-0.7-4.6-1.4L891.9,118.3L891.9,118.3L891.9,118.3z M908.3,189.8
		c1.1,0.4,1.8,0.4,2.9,0.4c1.1,0,2.1,0,3.2,0c5,0,8.9-1.4,11.8-4.3s4.3-7.5,4.3-13.6c0-5.7-0.7-9.7-2.9-12.5
		c-2.1-2.9-4.6-4.3-8.9-4.3c-3.2,0-5.7,1.1-7.5,3.2c-1.8,2.1-2.9,5.4-2.9,9.7L908.3,189.8L908.3,189.8z"/>
</g>
<g>
	<path fill="#333333" d="M770.7,223.7h-2.1l-2.5-8.2l0,0l-2.5,8.2h-2.1l-3.2-9.7h1.8l2.1,7.9l0,0l2.5-7.9h2.1l2.5,7.9l0,0l2.5-7.9
		h1.8L770.7,223.7z"/>
	<path fill="#333333" d="M783.6,223.4c-0.7,0.4-1.4,0.7-2.9,0.7c-3.6,0-5-2.1-5-5.4c0-2.9,1.8-5,4.6-5c3.2,0,4.3,2.5,4.3,5.4h-7.1
		c0,1.8,1.4,3.2,3.2,3.2c1.1,0,2.5-0.7,2.9-1.1C783.6,221.6,783.6,223.4,783.6,223.4z M782.5,218c0-1.4-0.7-2.9-2.5-2.9
		c-1.8,0-2.5,1.4-2.5,2.9H782.5z"/>
	<path fill="#333333" d="M787.5,209.4h1.8v6.1l0,0c0.4-0.7,1.4-1.4,3.2-1.4c2.9,0,4.3,2.1,4.3,5c0,2.9-1.1,5.4-3.9,5.4
		c-1.8,0-2.9-0.7-3.2-1.4l0,0v1.4h-1.8v-15H787.5z M792.1,215.1c-1.8,0-2.9,1.8-2.9,3.6s0.7,3.6,2.9,3.6c1.8,0,2.9-2.1,2.9-3.6
		C794.6,217.3,793.9,215.1,792.1,215.1z"/>
	<path fill="#333333" d="M799.6,209.4h1.8v6.1l0,0c0.7-1.1,1.8-1.4,3.2-1.4c2.5,0,3.6,1.4,3.6,3.9v5.7h-1.8v-5
		c0-2.1-0.4-3.2-2.1-3.6c-2.1,0-2.9,1.4-2.9,3.9v4.3h-1.8V209.4L799.6,209.4L799.6,209.4z"/>
	<path fill="#333333" d="M815.7,213.7c2.9,0,5,2.1,5,5c0,2.9-2.1,5-5,5c-2.9,0-5-2.1-5-5C811.1,215.8,812.9,213.7,815.7,213.7z
		 M815.7,222.6c2.1,0,2.9-1.8,2.9-3.6s-1.1-3.6-2.9-3.6c-1.8,0-2.9,1.8-2.9,3.6C812.9,220.5,813.9,222.6,815.7,222.6z"/>
	<path fill="#333333" d="M823.2,221.9c0.7,0.4,1.8,0.7,2.1,0.7c0.7,0,1.8-0.4,1.8-1.4c0-1.8-4.3-1.4-4.3-4.3c0-2.1,1.4-2.9,3.6-2.9
		c0.7,0,1.4,0,2.1,0.4l-0.4,1.4c-0.4-0.4-1.4-0.4-1.8-0.4c-0.7,0-1.8,0.4-1.8,1.1c0,1.8,4.3,1.4,4.3,4.6c0,2.1-1.4,2.9-3.2,2.9
		c-0.7,0-1.8,0-2.9-0.7L823.2,221.9z"/>
	<path fill="#333333" d="M836.8,215.5h-2.5v5.4c0,1.1,0.7,1.8,1.4,1.8s1.1,0,1.1-0.4v1.4c-0.4,0-1.1,0.4-1.4,0.4
		c-1.8,0-2.9-0.7-2.9-2.9v-5.7h-2.1v-1.4h2.1v-2.1l1.8-0.4v2.9h2.5V215.5L836.8,215.5z"/>
	<path fill="#333333" d="M841.8,211.9h-2.1v-2.1h2.1V211.9z M840,214.1h1.8v9.7H840V214.1z"/>
	<path fill="#333333" d="M845.7,214.1h1.8v1.4l0,0c0.4-1.1,1.8-1.8,3.2-1.8c2.5,0,3.6,1.4,3.6,3.9v5.7h-1.8v-5
		c0-2.1-0.4-3.2-2.1-3.6c-2.1,0-2.9,1.4-2.9,3.9v4.3h-1.8L845.7,214.1L845.7,214.1z"/>
	<path fill="#333333" d="M866.1,223.4c0,2.9-1.4,4.6-5,4.6c-1.1,0-1.8,0-3.6-0.7l0.4-1.4c1.4,0.7,2.1,0.7,3.6,0.7
		c1.8,0,2.9-1.4,2.9-3.2v-1.1l0,0c-0.7,1.1-2.1,1.4-3.2,1.4c-2.9,0-3.9-2.1-3.9-4.6c0-2.5,1.4-5,4.3-5c1.8,0,2.9,0.7,3.2,1.8l0,0
		v-1.4h1.8v8.9H866.1z M864.3,219.1c0-2.1-1.1-3.6-2.9-3.6c-1.8,0-2.9,1.8-2.9,3.6s1.1,3.2,2.9,3.2
		C863.3,222.3,864.3,220.9,864.3,219.1z"/>
	<path fill="#333333" d="M870.1,209.4h1.8v6.1l0,0c0.7-1.1,1.8-1.4,3.2-1.4c2.5,0,3.6,1.4,3.6,3.9v5.7h-1.8v-5
		c0-2.1-0.4-3.2-2.1-3.6c-2.1,0-2.9,1.4-2.9,3.9v4.3h-1.8L870.1,209.4L870.1,209.4L870.1,209.4z"/>
	<path fill="#333333" d="M890.4,223.7h-1.8v-1.4l0,0c-0.4,1.1-1.8,1.8-3.2,1.8c-2.5,0-3.6-1.4-3.6-3.9v-5.7h1.8v5
		c0,2.1,0.4,3.2,2.1,3.6c2.1,0,2.9-1.4,2.9-3.9v-4.3h1.8L890.4,223.7L890.4,223.7z"/>
	<path fill="#333333" d="M894.4,209.4h1.8v6.1l0,0c0.7-0.7,1.4-1.4,3.2-1.4c2.9,0,4.3,2.1,4.3,5c0,2.9-1.1,5.4-3.9,5.4
		c-1.8,0-2.9-0.7-3.2-1.4l0,0v1.4h-1.8L894.4,209.4L894.4,209.4z M899,215.1c-1.8,0-2.9,1.8-2.9,3.6s0.7,3.6,2.9,3.6
		c2.1,0,2.9-2.1,2.9-3.6C901.5,217.3,900.8,215.1,899,215.1z"/>
	<path fill="#333333" d="M906.5,221.6h2.1v2.1h-2.1V221.6z"/>
	<path fill="#333333" d="M918.3,215.8c-0.7-0.4-1.4-0.4-1.8-0.4c-2.1,0-3.2,1.8-3.2,3.6s1.1,3.6,3.2,3.6c0.7,0,1.4-0.4,1.8-0.7v1.4
		c-0.7,0.4-1.4,0.4-2.1,0.4c-2.9,0-5-2.1-5-5c0-2.9,1.8-5,5-5c0.7,0,1.4,0,2.1,0.4V215.8z"/>
	<path fill="#333333" d="M925.5,213.7c2.9,0,5,2.1,5,5c0,2.9-2.1,5-5,5c-2.9,0-5-2.1-5-5C920.8,215.8,922.6,213.7,925.5,213.7z
		 M925.5,222.6c2.1,0,2.9-1.8,2.9-3.6s-1.1-3.6-2.9-3.6c-1.8,0-2.9,1.8-2.9,3.6C922.6,220.5,923.3,222.6,925.5,222.6z"/>
	<path fill="#333333" d="M933.3,214.1h1.8v1.4l0,0c0.7-1.1,1.4-1.4,2.9-1.4c1.1,0,2.1,0.4,2.9,1.8c0.7-1.4,2.1-1.8,2.9-1.8
		c2.5,0,3.2,1.4,3.2,3.6v6.1h-1.8V218c0-1.1-0.4-2.9-1.8-2.9c-1.8,0-2.5,1.8-2.5,3.6v4.6h-1.4v-5.7c0-1.1-0.4-2.9-1.8-2.9
		c-1.8,0-2.5,1.8-2.5,3.6v4.6h-1.8V214.1L933.3,214.1z"/>
</g>
<defs>
	<filter id="Adobe_OpacityMaskFilter" filterUnits="userSpaceOnUse" x="690.6" y="132.2" width="16.4" height="9.3">
		<feColorMatrix  type="matrix" values="1 0 0 0 0  0 1 0 0 0  0 0 1 0 0  0 0 0 1 0"/>
	</filter>
</defs>
<mask maskUnits="userSpaceOnUse" x="690.6" y="132.2" width="16.4" height="9.3" id="SVGID_6_">
	<g filter="url(#Adobe_OpacityMaskFilter)">
		
			<linearGradient id="SVGID_1_" gradientUnits="userSpaceOnUse" x1="147.8859" y1="527.1066" x2="147.8859" y2="493.4294" gradientTransform="matrix(0.3411 0 0 -0.3411 648.3869 311.6567)">
			<stop  offset="0" style="stop-color:#FFFFFF"/>
			<stop  offset="8.960000e-002" style="stop-color:#FFFFFF;stop-opacity:0.9104"/>
			<stop  offset="1" style="stop-color:#FFFFFF;stop-opacity:0"/>
		</linearGradient>
		<rect x="688.5" y="131.8" fill="url(#SVGID_1_)" width="20.7" height="11.4"/>
	</g>
</mask>
<path mask="url(#SVGID_6_)" fill="#FF7007" d="M698.8,141.5c3.6,0,7.1-1.8,8.2-3.9c-1.4-3.2-4.6-5.4-8.2-5.4s-6.8,2.1-8.2,5.4
	C691.7,140.1,694.9,141.5,698.8,141.5z"/>
<g>
	<path fill="#1499CD" d="M688.5,198.3c-21.8,0-39.7-17.9-39.7-39.7s17.9-39.7,39.7-39.7s39.7,17.9,39.7,39.7
		S710.6,198.3,688.5,198.3z M688.5,122.9c-19.7,0-35.7,16.1-35.7,35.7s16.1,35.7,35.7,35.7s35.7-16.1,35.7-35.7
		S708.1,122.9,688.5,122.9z"/>
</g>
<path fill="#FF7007" d="M644.9,163.7c0-9.3,9.7-16.4,21.4-16.4s21.4,7.5,21.4,16.4c0,8.9-9.7,16.8-21.4,16.8
	C654.5,180.1,644.9,172.6,644.9,163.7z"/>
<defs>
	<filter id="Adobe_OpacityMaskFilter_1_" filterUnits="userSpaceOnUse" x="709.6" y="152.6" width="29.7" height="22.9">
		<feColorMatrix  type="matrix" values="1 0 0 0 0  0 1 0 0 0  0 0 1 0 0  0 0 0 1 0"/>
	</filter>
</defs>
<mask maskUnits="userSpaceOnUse" x="709.6" y="152.6" width="29.7" height="22.9" id="SVGID_2_">
	<g filter="url(#Adobe_OpacityMaskFilter_1_)">
		
			<linearGradient id="SVGID_3_" gradientUnits="userSpaceOnUse" x1="224.3792" y1="468.6795" x2="224.3792" y2="397.6232" gradientTransform="matrix(0.3411 0 0 -0.3411 648.3869 311.6567)">
			<stop  offset="0" style="stop-color:#FFFFFF"/>
			<stop  offset="8.960000e-002" style="stop-color:#FFFFFF;stop-opacity:0.9104"/>
			<stop  offset="1" style="stop-color:#FFFFFF;stop-opacity:0"/>
		</linearGradient>
		<rect x="703.1" y="151.9" fill="url(#SVGID_3_)" width="43.6" height="24.3"/>
	</g>
</mask>
<path mask="url(#SVGID_2_)" fill="#FF7007" d="M739.2,157.9c0-0.4,0-1.1,0-1.4c-3.2-2.5-7.1-3.9-11.4-3.9c-10,0-18.2,8.2-18.2,18.2
	c0,0.4,0,1.1,0,1.4c2.9,2.1,6.8,3.2,10.7,3.2C730.6,175.5,739.2,167.6,739.2,157.9z"/>
<circle fill="#FF7007" cx="666.3" cy="174.4" r="27.9"/>
<circle fill="#FF7007" cx="727.8" cy="170.5" r="18.6"/>
<circle fill="#FF7007" cx="698.8" cy="141.1" r="9.3"/>
</svg>
