<?xml version="1.0" encoding="utf-8"?>
<!-- Generator: Adobe Illustrator 18.1.1, SVG Export Plug-In . SVG Version: 6.00 Build 0)  -->
<!DOCTYPE svg PUBLIC "-//W3C//DTD SVG 1.1//EN" "http://www.w3.org/Graphics/SVG/1.1/DTD/svg11.dtd">
<svg version="1.1" id="Layer_1" xmlns="http://www.w3.org/2000/svg" xmlns:xlink="http://www.w3.org/1999/xlink" x="0px" y="0px"
	 viewBox="309.5 3.2 383 294.5" enable-background="new 309.5 3.2 383 294.5" xml:space="preserve">
<path fill="#FF7007" d="M492.6,82.1c0-17.7,14.3-32,32-32c17.6,0,32,14.3,32,32c0,17.6-14.3,32-32,32
	C506.9,114.1,492.6,99.8,492.6,82.1z"/>
<defs>
	<filter id="Adobe_OpacityMaskFilter" filterUnits="userSpaceOnUse" x="495.4" y="50" width="58.3" height="33.3">
		<feColorMatrix  type="matrix" values="1 0 0 0 0  0 1 0 0 0  0 0 1 0 0  0 0 0 1 0"/>
	</filter>
</defs>
<mask maskUnits="userSpaceOnUse" x="495.4" y="50" width="58.3" height="33.3" id="SVGID_1_">
	<g filter="url(#Adobe_OpacityMaskFilter)">
		
			<linearGradient id="SVGID_2_" gradientUnits="userSpaceOnUse" x1="561.3442" y1="124.7" x2="561.3442" y2="228.6326" gradientTransform="matrix(0.3916 0 0 0.3916 304.1776 1.349592e-002)">
			<stop  offset="0" style="stop-color:#FFFFFF"/>
			<stop  offset="8.962709e-002" style="stop-color:#FFFFFF;stop-opacity:0.9104"/>
			<stop  offset="1" style="stop-color:#FFFFFF;stop-opacity:0"/>
		</linearGradient>
		<rect x="487.3" y="48.8" fill="url(#SVGID_2_)" width="73.4" height="40.7"/>
	</g>
</mask>
<path mask="url(#SVGID_1_)" fill="#FF7007" d="M524.6,83.3c13.4,0,24.8-6,29.1-14.2C548.8,57.8,537.6,50,524.5,50
	c-13,0-24.1,7.8-29.1,18.9C499.6,77.3,511,83.3,524.6,83.3z"/>
<g>
	<path fill="#FF7007" d="M524.5,114.9c-18.1,0-32.8-14.7-32.8-32.8s14.7-32.8,32.8-32.8s32.8,14.7,32.8,32.8
		S542.6,114.9,524.5,114.9z M524.5,51.1c-17.2,0-31.1,13.9-31.1,31.1s13.9,31.1,31.1,31.1s31.1-13.9,31.1-31.1
		S541.7,51.1,524.5,51.1z"/>
</g>
<g>
	<path fill="#FF7007" d="M487.8,284.4c-77.5,0-140.6-63.1-140.6-140.6S410.3,3.2,487.8,3.2s140.6,63.1,140.6,140.6
		C628.5,221.3,565.4,284.4,487.8,284.4z M487.8,17.3C418,17.3,361.3,74,361.3,143.8c0,69.7,56.7,126.5,126.5,126.5
		s126.5-56.7,126.5-126.5C614.3,74.1,557.6,17.3,487.8,17.3z"/>
</g>
<path fill="#FF7007" d="M333.4,161.2c0-32.5,34-58.9,76-58.9s76,26.4,76,58.9s-34,58.8-76,58.8S333.4,193.7,333.4,161.2z"/>
<g>
	<path fill="#FF7007" d="M311.2,198.9c0-53.7,43.5-97.2,97.2-97.2s97.2,43.5,97.2,97.2c0,53.6-43.5,97.1-97.2,97.1
		S311.2,252.5,311.2,198.9z"/>
	<defs>
		<filter id="Adobe_OpacityMaskFilter_1_" filterUnits="userSpaceOnUse" x="348.8" y="101.7" width="156.7" height="130">
			<feColorMatrix  type="matrix" values="1 0 0 0 0  0 1 0 0 0  0 0 1 0 0  0 0 0 1 0"/>
		</filter>
	</defs>
	<mask maskUnits="userSpaceOnUse" x="348.8" y="101.7" width="156.7" height="130" id="SVGID_3_">
		<g filter="url(#Adobe_OpacityMaskFilter_1_)">
			
				<linearGradient id="SVGID_4_" gradientUnits="userSpaceOnUse" x1="313.8978" y1="252.7745" x2="313.8978" y2="591.6407" gradientTransform="matrix(0.3916 0 0 0.3916 304.1776 1.349592e-002)">
				<stop  offset="0" style="stop-color:#FFFFFF"/>
				<stop  offset="1" style="stop-color:#231F20"/>
			</linearGradient>
			<rect x="299.1" y="99" fill="url(#SVGID_4_)" width="256" height="132.7"/>
		</g>
	</mask>
	<path opacity="0.75" mask="url(#SVGID_3_)" fill="#FF7007" enable-background="new    " d="M408.4,101.7
		c-22.2,0-42.7,7.6-59.1,20.2c-0.4,3.3-0.5,6.7-0.5,10.1c0,55.1,49.8,99.7,111.1,99.7c15,0,29.2-2.7,42.2-7.5
		c2.2-8.1,3.4-16.5,3.4-25.2C505.6,145.2,462,101.7,408.4,101.7z"/>
	<g>
		<path fill="#FF7007" d="M408.4,297.7c-54.6,0-98.9-44.4-98.9-98.9c0-54.6,44.4-98.9,98.9-98.9s98.9,44.4,98.9,98.9
			C507.3,253.4,462.9,297.7,408.4,297.7z M408.4,103.4c-52.6,0-95.5,42.8-95.5,95.5c0,52.6,42.8,95.4,95.4,95.4s95.4-42.8,95.4-95.4
			C503.8,146.2,461,103.4,408.4,103.4z"/>
	</g>
</g>
<path fill="#FF7007" d="M562.4,186c0-35.4,28.7-64.2,64.2-64.2c35.4,0,64.2,28.7,64.2,64.2c0,35.4-28.7,64.1-64.2,64.1
	C591.2,250.1,562.4,221.3,562.4,186z"/>
<defs>
	<filter id="Adobe_OpacityMaskFilter_2_" filterUnits="userSpaceOnUse" x="562.4" y="121.8" width="104.6" height="81.7">
		<feColorMatrix  type="matrix" values="1 0 0 0 0  0 1 0 0 0  0 0 1 0 0  0 0 0 1 0"/>
	</filter>
</defs>
<mask maskUnits="userSpaceOnUse" x="562.4" y="121.8" width="104.6" height="81.7" id="SVGID_5_">
	<g filter="url(#Adobe_OpacityMaskFilter_2_)">
		
			<linearGradient id="SVGID_6_" gradientUnits="userSpaceOnUse" x1="797.9376" y1="304.8685" x2="797.9376" y2="523.9697" gradientTransform="matrix(0.3916 0 0 0.3916 304.1776 1.349592e-002)">
			<stop  offset="0" style="stop-color:#FFFFFF"/>
			<stop  offset="8.962709e-002" style="stop-color:#FFFFFF;stop-opacity:0.9104"/>
			<stop  offset="1" style="stop-color:#FFFFFF;stop-opacity:0"/>
		</linearGradient>
		<rect x="539.2" y="119.4" fill="url(#SVGID_6_)" width="154.9" height="85.8"/>
	</g>
</mask>
<path mask="url(#SVGID_5_)" fill="#FF7007" d="M667,141c0-1.7-0.1-3.4-0.3-5.1c-11-8.8-24.9-14.1-40.1-14.1
	c-35.4,0-64.2,28.7-64.2,64.2c0,2,0.1,3.9,0.3,5.8c10.8,7.4,24,11.7,38.4,11.7C637.4,203.3,667,175.5,667,141z"/>
<g>
	<path fill="#FF7007" d="M626.6,251.8c-36.3,0-65.9-29.6-65.9-65.8c0-36.3,29.6-65.9,65.9-65.9c36.3,0,65.9,29.6,65.9,65.9
		C692.5,222.2,662.9,251.8,626.6,251.8z M626.6,123.5c-34.4,0-62.5,28-62.5,62.5c0,34.4,28,62.4,62.5,62.4s62.5-28,62.5-62.4
		C689.1,151.5,661,123.5,626.6,123.5z"/>
</g>
</svg>
