<?xml version="1.0" encoding="utf-8"?>
<!-- Generator: Adobe Illustrator 18.1.1, SVG Export Plug-In . SVG Version: 6.00 Build 0)  -->
<!DOCTYPE svg PUBLIC "-//W3C//DTD SVG 1.1//EN" "http://www.w3.org/Graphics/SVG/1.1/DTD/svg11.dtd">
<svg version="1.1" id="Layer_1" xmlns="http://www.w3.org/2000/svg" xmlns:xlink="http://www.w3.org/1999/xlink" x="0px" y="0px"
	 viewBox="417.7 10 163 285.7" enable-background="new 417.7 10 163 285.7" xml:space="preserve">
<g id="Dynamo">
	<g>
		<path fill="#FF362B" d="M552.7,14.9c-15.9,41.4-31.9,82.8-48.1,125c25.2,0,49.4,0,76.1,0c-49.1,51.7-96.8,101.9-144.4,152
			c-0.4-0.2-0.8-0.5-1.3-0.8c18-41.3,36-82.6,54.5-124.9c-23.6,0-46.2,0-68.8,0c-0.4-0.7-0.8-1.3-1.2-1.9
			c44-50.2,88-100.4,132-150.5C551.8,14.2,552.3,14.5,552.7,14.9z"/>
		<polygon fill="#FF362B" points="424.8,166.3 417.7,166.3 420.7,162.8 426.7,162.1 		"/>
		<polygon fill="#FF362B" points="549.4,16.1 553.8,10.9 550.1,21.7 		"/>
		<polygon fill="#FF362B" points="549.2,23.9 554.5,10 546.4,19.6 546.4,24.5 		"/>
		<polygon fill="#FF362B" points="436.8,287.1 432.9,295.7 439.4,288.7 441,285.8 		"/>
	</g>
</g>
<g id="Nitro" display="none">
	<path display="inline" fill="#FE7008" d="M521.3,56l-61.5,159.4l8.6,6.4c0.2-8.4,2.5-19.6,12.8-20c7-0.2,12.2,6.6,13.1,12.8
		c0.8,5.5,0,10.9-2.8,15.6l11.2-4l25-168.4L521.3,56z"/>
	<path display="inline" fill="#FE7008" d="M544.6,138.9c8.4-12.3,16-23.3,23.8-34.9c22.9,13.7,39.5,31.8,52.9,55.3
		c-14.9,7.7-29.2,14.9-44.5,22.7C569.2,165.7,559.6,151.2,544.6,138.9z"/>
	<path display="inline" fill="#FE7008" d="M627.3,172.4c-16.3,6.5-32.1,11.3-47.3,18.8c0,0.1,0,0.1,0,0.1c1.1-0.5,2.3-0.8,3.7-0.8
		c0.2,0,0.4,0.1,0.7,0.1c3.4-1.3,7-2.1,10.7-2.3c17.4-0.8,30.6,14.9,31.3,31.3c0.2,4.7,0.6,9.5,1,14.2c4.7-0.4,9.5-0.8,14.5-1.1
		C640,211.3,637.1,191.6,627.3,172.4z"/>
	<path display="inline" fill="#FE7008" d="M641.7,232.8l-54,7.3c0,0-1.7-33.2-7.9-48.8l47.3-18.8C627.3,172.4,638.7,193,641.7,232.8
		z"/>
	<circle display="inline" fill="#FE7008" cx="524.3" cy="57.7" r="3.5"/>
	<path display="inline" fill="#FE7008" d="M503.6,220c0,12.2-9.9,22.1-22.1,22.1s-22.1-9.9-22.1-22.1c0-12.2,9.9-22.1,22.1-22.1
		S503.6,207.8,503.6,220z M481.5,209c-6.1,0-11,4.9-11,11c0,6.1,4.9,11,11,11s11-4.9,11-11C492.5,213.9,487.6,209,481.5,209z"/>
	<polygon display="inline" fill="#FE7008" points="460.6,212.7 476.7,171.5 486.7,171.2 479.5,194.7 463.2,215.7 	"/>
	<polygon display="inline" fill="#FE7008" points="503.5,222.5 509.7,178.9 500.2,175.1 493.8,188.5 496,227.6 	"/>
	<path display="inline" fill="#FE7008" d="M568.5,104.1L544.6,139c0.1,0,0.1,0.1,0.1,0.1c4.1-4.1,9.8-6.8,17.3-6.8
		c20.3,0,28,19.7,23,34.6c-1,5.8-3.8,11.2-8.3,14.9c0.1,0.3,0.2,0.5,0.2,0.5l44.5-22.7C603.4,121.7,568.5,104.1,568.5,104.1z"/>
	<polygon display="inline" fill="#FE7008" points="527.7,57.7 523,89.3 517.9,91 511.4,81.7 521.3,56 524.3,55.3 	"/>
	<path display="inline" fill="#FE7008" d="M428.2,121c10.4-9.4,27.1-14.8,41.2-16l-3.4-22c0,0-35.7,3.2-64,31.9l14.7,19
		c0,0,3-2.8,8.6-6.3C425.2,125.3,426,122.9,428.2,121z"/>
	<path display="inline" fill="#FE7008" d="M416.8,133.8c0,0,22.1-18.7,53.3-23.9L466,82.9l-50.6,32L416.8,133.8z"/>
	<path display="inline" fill="#FE7008" d="M392.6,124.3c0,0-26.7,26.5-31.5,61.6l13.3,3.9c0,0,15.4-37.5,32.5-48.6L392.6,124.3z"/>
	<path display="inline" fill="#FE7008" d="M374.3,189.8c0,0,15.2-34.7,32.5-48.6l-14.2-16.9l-20.3,50L374.3,189.8z"/>
	<path display="inline" fill="#FE7008" d="M474.9,81.6l4.1,27.6c0,0,8.5-0.5,15.5,1l8.9-29C503.4,81.2,485.8,79,474.9,81.6z"/>
	<path display="inline" fill="#F47521" d="M358.5,196l13.7,3.8c0,0-6.1,26.6-3,49.4L363,251C363,251,354.2,234.8,358.5,196z"/>
	<path display="inline" fill="#FE7008" d="M536.8,131c0,0-6.2-5.5-11.6-8.5L531,85c0,0,17,3.8,27.7,12.5L536.8,131z"/>
</g>
<g id="Spark_New" display="none">
	<polygon display="inline" fill="#00AB00" points="541.2,287.7 640,217.3 567.7,217.3 619.9,116.6 534.8,168.8 499.2,16.6 
		463.3,168.8 377.9,116.6 430.3,217.3 357.7,217.3 456.9,287.7 418.3,240.6 464.3,245.6 447.7,197.2 482.2,222.3 499.3,148.6 
		516.1,222.3 550.3,197.2 533.9,245.6 579.6,240.6 	"/>
</g>
</svg>
